<?xml version="1.0" encoding="utf-8"?>
<!-- Generator: Adobe Illustrator 16.0.0, SVG Export Plug-In . SVG Version: 6.00 Build 0)  -->
<!DOCTYPE svg PUBLIC "-//W3C//DTD SVG 1.1//EN" "http://www.w3.org/Graphics/SVG/1.1/DTD/svg11.dtd">
<svg version="1.1" id="Layer_1" xmlns="http://www.w3.org/2000/svg" xmlns:xlink="http://www.w3.org/1999/xlink" x="0px" y="0px"
	 width="350px" height="250px" viewBox="-32.5 0 350 250" enable-background="new -32.5 0 350 250" xml:space="preserve">
<g>
	<g>
		
			<line fill="none" stroke="#EF3C68" stroke-width="5" stroke-miterlimit="10" stroke-dasharray="7" x1="317.5" y1="160.602" x2="211.845" y2="160.602"/>
	</g>
	<g>
		<polygon fill="#EF3C68" points="218.288,163.844 210.317,166.844 210.317,154.359 218.288,157.359 		"/>
		<polygon fill="#EF3C68" stroke="#A61E2F" stroke-width="0.869" stroke-miterlimit="10" points="196.89,167.844 196.89,153.359 
			208.288,153.359 210.317,154.359 210.317,166.844 208.288,167.844 		"/>
		<path fill="#FFCE0E" stroke="#F8993A" stroke-width="0.869" stroke-miterlimit="10" d="M208.401,167.844"/>
		
			<line fill="none" stroke="#A61E2F" stroke-width="0.8801" stroke-miterlimit="10" x1="211.776" y1="154.359" x2="211.776" y2="166.859"/>
		
			<line fill="none" stroke="#A61E2F" stroke-width="0.903" stroke-miterlimit="10" x1="213.276" y1="155.109" x2="213.276" y2="166.109"/>
		
			<line fill="none" stroke="#A61E2F" stroke-width="0.9361" stroke-miterlimit="10" x1="214.776" y1="155.859" x2="214.776" y2="165.359"/>
		
			<line fill="none" stroke="#A61E2F" stroke-width="0.8854" stroke-miterlimit="10" x1="216.276" y1="156.359" x2="216.276" y2="164.859"/>
		<rect x="217.456" y="157.047" fill="#A61E2F" width="3.486" height="7.186"/>
	</g>
</g>
<g>
	<rect x="56.5" y="116.667" fill="#171617" stroke="#000000" stroke-miterlimit="10" width="22.667" height="34"/>
	<g>
		<path fill="#FFFFFF" d="M69.976,142.896h-6.237v-4.213h1.179v2.809h1.225v-2.493h1.151v2.493h1.503v-3.016h1.18V142.896z"/>
		<path fill="#FFFFFF" d="M63.738,135.786c0.198-0.108,0.442-0.233,0.733-0.374c0.291-0.142,0.605-0.289,0.945-0.442
			c0.339-0.153,0.686-0.306,1.039-0.456s0.688-0.291,0.999-0.424c-0.312-0.133-0.646-0.273-0.999-0.424s-0.7-0.303-1.039-0.456
			c-0.34-0.153-0.654-0.301-0.945-0.442c-0.291-0.141-0.535-0.266-0.733-0.375v-1.277c0.413-0.061,0.878-0.115,1.39-0.166
			c0.514-0.052,1.048-0.097,1.603-0.136c0.556-0.039,1.112-0.075,1.669-0.108c0.559-0.032,1.084-0.061,1.576-0.085v1.368
			c-0.606,0.018-1.267,0.042-1.98,0.072c-0.714,0.029-1.434,0.074-2.16,0.135c0.252,0.108,0.531,0.229,0.837,0.361
			c0.306,0.132,0.612,0.264,0.919,0.393c0.305,0.129,0.598,0.254,0.877,0.375c0.279,0.119,0.518,0.223,0.715,0.307v0.98
			c-0.197,0.084-0.436,0.188-0.715,0.307c-0.279,0.121-0.572,0.246-0.877,0.375c-0.307,0.13-0.613,0.261-0.919,0.393
			c-0.306,0.133-0.585,0.254-0.837,0.361c0.727,0.061,1.446,0.105,2.16,0.135c0.714,0.031,1.374,0.055,1.98,0.072v1.368
			c-0.492-0.024-1.018-0.052-1.576-0.085c-0.557-0.033-1.113-0.069-1.669-0.108c-0.555-0.039-1.089-0.084-1.603-0.136
			c-0.512-0.051-0.977-0.105-1.39-0.166V135.786z"/>
		<path fill="#FFFFFF" d="M70.101,126.525c0,1.014-0.281,1.787-0.846,2.317c-0.563,0.531-1.365,0.796-2.402,0.796
			c-0.517,0-0.977-0.08-1.382-0.242s-0.747-0.385-1.026-0.666c-0.279-0.282-0.49-0.618-0.635-1.008
			c-0.144-0.391-0.215-0.813-0.215-1.27c0-0.264,0.02-0.504,0.059-0.72s0.084-0.405,0.135-0.567s0.104-0.297,0.157-0.404
			c0.054-0.108,0.096-0.186,0.126-0.234l1.134,0.404c-0.103,0.193-0.188,0.416-0.261,0.672c-0.072,0.254-0.108,0.544-0.108,0.867
			c0,0.217,0.036,0.428,0.108,0.635s0.188,0.391,0.346,0.549c0.16,0.16,0.365,0.287,0.617,0.383s0.559,0.145,0.918,0.145
			c0.288,0,0.557-0.031,0.805-0.095c0.25-0.063,0.465-0.165,0.645-0.306s0.322-0.326,0.428-0.554
			c0.104-0.228,0.156-0.505,0.156-0.828c0-0.204-0.012-0.388-0.035-0.549c-0.023-0.162-0.053-0.306-0.086-0.433
			c-0.033-0.125-0.07-0.236-0.112-0.332c-0.042-0.097-0.081-0.184-0.116-0.262l1.125-0.387c0.119,0.197,0.228,0.477,0.323,0.837
			C70.054,125.635,70.101,126.051,70.101,126.525z"/>
	</g>
</g>
<line fill="none" stroke="#171718" stroke-width="4" stroke-miterlimit="10" stroke-dasharray="4" x1="154.993" y1="91.878" x2="154.993" y2="0.458"/>
<g>
	<polygon fill="#171718" stroke="#000000" stroke-width="0.6159" stroke-miterlimit="10" points="153.021,81.215 156.971,81.215 
		157.971,87.632 157.971,98.639 152.021,98.639 152.021,87.632 	"/>
	
		<line fill="none" stroke="#000000" stroke-width="0.6159" stroke-miterlimit="10" x1="152.021" y1="87.632" x2="157.971" y2="87.632"/>
	
		<line fill="none" stroke="#000000" stroke-width="0.6159" stroke-miterlimit="10" x1="152.227" y1="86.314" x2="157.764" y2="86.31"/>
	
		<line fill="none" stroke="#000000" stroke-width="0.6159" stroke-miterlimit="10" x1="152.419" y1="85.074" x2="157.575" y2="85.104"/>
	
		<line fill="none" stroke="#000000" stroke-width="0.6159" stroke-miterlimit="10" x1="152.598" y1="83.938" x2="157.393" y2="83.925"/>
	
		<line fill="none" stroke="#000000" stroke-width="0.6159" stroke-miterlimit="10" x1="152.753" y1="82.933" x2="157.236" y2="82.93"/>
	
		<line fill="none" stroke="#000000" stroke-width="0.6159" stroke-miterlimit="10" x1="152.867" y1="82.033" x2="157.113" y2="82.033"/>
</g>
<line fill="none" stroke="#FFCE0C" stroke-width="5" stroke-miterlimit="10" stroke-dasharray="5" x1="125.161" y1="84.878" x2="125.161" y2="0.458"/>
<g>
	<polygon fill="#FFCE0C" stroke="#F8983A" stroke-width="0.8388" stroke-miterlimit="10" points="121.492,90.653 128.939,90.653 
		129.939,94.911 129.939,100.834 120.492,100.834 120.492,94.827 	"/>
	<rect x="121.924" y="80.911" fill="#FFCE0C" width="6.583" height="9.333"/>
	
		<line fill="none" stroke="#F8983A" stroke-width="0.8388" stroke-miterlimit="10" x1="121.327" y1="89.411" x2="128.994" y2="89.411"/>
	
		<line fill="none" stroke="#F8983A" stroke-width="0.8388" stroke-miterlimit="10" x1="121.327" y1="88.411" x2="128.994" y2="88.411"/>
	
		<line fill="none" stroke="#F8983A" stroke-width="0.8388" stroke-miterlimit="10" x1="121.327" y1="87.411" x2="128.994" y2="87.411"/>
	
		<line fill="none" stroke="#F8983A" stroke-width="0.8388" stroke-miterlimit="10" x1="121.327" y1="86.411" x2="128.994" y2="86.411"/>
	
		<line fill="none" stroke="#F8983A" stroke-width="0.8388" stroke-miterlimit="10" x1="121.327" y1="85.411" x2="128.994" y2="85.411"/>
	
		<line fill="none" stroke="#F8983A" stroke-width="0.8388" stroke-miterlimit="10" x1="121.327" y1="84.411" x2="128.994" y2="84.411"/>
	
		<line fill="none" stroke="#F8983A" stroke-width="0.8388" stroke-miterlimit="10" x1="121.327" y1="83.411" x2="128.994" y2="83.411"/>
	
		<line fill="none" stroke="#F8983A" stroke-width="0.8388" stroke-miterlimit="10" x1="121.327" y1="82.411" x2="128.994" y2="82.411"/>
</g>
<g>
	<polygon fill="#3399CC" points="140.824,205.74 142.013,204.302 142.013,197.807 134.636,197.807 134.636,204.302 135.84,205.74 	
		"/>
	<g>
		<polygon fill="#3399CC" stroke="#1D304B" stroke-miterlimit="10" points="147.197,172.459 147.197,190.876 145.197,197.807 
			131.451,197.807 129.451,190.898 129.451,172.459 		"/>
		<g>
			<path fill="#FFFFFF" d="M134.104,187.285h0.78v3.465h-0.78v-1.47h-1.31v1.47h-0.78v-3.465h0.78v1.324h1.31V187.285z"/>
			<path fill="#FFFFFF" d="M138.719,189.014c0,0.301-0.047,0.563-0.141,0.785c-0.093,0.225-0.225,0.408-0.396,0.557
				c-0.172,0.146-0.381,0.256-0.628,0.328c-0.247,0.073-0.523,0.11-0.83,0.11c-0.14,0-0.304-0.006-0.489-0.019
				c-0.188-0.012-0.371-0.034-0.551-0.071v-3.375c0.18-0.033,0.367-0.056,0.563-0.067c0.196-0.011,0.363-0.018,0.502-0.018
				c0.297,0,0.566,0.033,0.809,0.1c0.241,0.067,0.449,0.172,0.622,0.315c0.173,0.143,0.307,0.325,0.399,0.55
				C138.672,188.434,138.719,188.702,138.719,189.014z M136.464,190.115c0.036,0.003,0.079,0.006,0.128,0.007
				c0.048,0.002,0.105,0.003,0.172,0.003c0.391,0,0.68-0.1,0.867-0.295c0.188-0.196,0.283-0.469,0.283-0.814
				c0-0.363-0.09-0.639-0.271-0.824c-0.18-0.188-0.465-0.28-0.854-0.28c-0.054,0-0.109,0.001-0.166,0.002
				c-0.057,0.002-0.109,0.006-0.159,0.013V190.115L136.464,190.115z"/>
			<path fill="#FFFFFF" d="M140.289,187.285c0.061,0.109,0.129,0.246,0.207,0.406c0.08,0.162,0.162,0.338,0.246,0.525
				c0.086,0.188,0.17,0.381,0.254,0.577c0.084,0.197,0.162,0.382,0.236,0.556c0.072-0.174,0.152-0.357,0.234-0.556
				c0.084-0.196,0.17-0.39,0.254-0.577c0.086-0.188,0.168-0.363,0.246-0.525c0.078-0.16,0.148-0.297,0.209-0.406h0.709
				c0.033,0.229,0.064,0.486,0.092,0.771c0.029,0.285,0.055,0.582,0.076,0.891s0.041,0.617,0.062,0.928
				c0.018,0.311,0.033,0.602,0.047,0.875h-0.76c-0.01-0.337-0.023-0.703-0.041-1.1c-0.016-0.397-0.041-0.797-0.074-1.2
				c-0.061,0.14-0.127,0.295-0.201,0.465c-0.072,0.17-0.146,0.34-0.219,0.51c-0.07,0.17-0.141,0.333-0.207,0.487
				c-0.066,0.154-0.125,0.288-0.172,0.396h-0.545c-0.047-0.108-0.104-0.242-0.17-0.396c-0.068-0.154-0.137-0.317-0.209-0.487
				c-0.072-0.17-0.145-0.34-0.219-0.51c-0.072-0.17-0.14-0.325-0.2-0.465c-0.033,0.403-0.058,0.803-0.075,1.2
				c-0.016,0.396-0.029,0.763-0.039,1.1h-0.761c0.014-0.273,0.029-0.564,0.048-0.875c0.018-0.311,0.038-0.619,0.061-0.928
				c0.021-0.309,0.046-0.604,0.074-0.891c0.028-0.285,0.059-0.543,0.093-0.771H140.289z"/>
			<path fill="#FFFFFF" d="M143.855,187.285h0.778v3.465h-0.778V187.285z"/>
		</g>
	</g>
	<line fill="none" stroke="#1D304B" stroke-miterlimit="10" x1="134.636" y1="199.302" x2="142.013" y2="199.302"/>
	<line fill="none" stroke="#1D304B" stroke-miterlimit="10" x1="134.636" y1="200.802" x2="142.013" y2="200.802"/>
	<line fill="none" stroke="#1D304B" stroke-miterlimit="10" x1="134.636" y1="202.302" x2="142.013" y2="202.302"/>
	<line fill="none" stroke="#1D304B" stroke-miterlimit="10" x1="134.636" y1="203.802" x2="142.013" y2="203.802"/>
</g>
<line fill="none" stroke="#3399CC" stroke-width="4" stroke-miterlimit="10" stroke-dasharray="4" x1="138.324" y1="204.875" x2="138.324" y2="249.542"/>
<polyline fill="none" stroke="#996699" stroke-width="2" stroke-miterlimit="10" stroke-dasharray="2" points="60.861,160.886 
	37.625,160.886 -32.5,160.742 "/>
<polygon fill="#6FC499" stroke="#569975" stroke-miterlimit="10" points="220.793,127.585 220.793,145.014 201.611,143.014 
	201.611,129.585 "/>
<g>
	<g>
		<path fill="none" stroke="#569975" stroke-width="2" stroke-miterlimit="10" stroke-dasharray="1" d="M230.963,126.906
			c5.189,5.191,5.189,13.595,0,18.785"/>
		<path fill="none" stroke="#569975" stroke-width="2" stroke-miterlimit="10" stroke-dasharray="1" d="M228.506,129.363
			c3.832,3.834,3.832,10.037,0,13.873"/>
		<path fill="none" stroke="#569975" stroke-width="2" stroke-miterlimit="10" stroke-dasharray="1" d="M225.857,132.24
			c2.246,2.242,2.246,5.877,0,8.121"/>
	</g>
</g>
<g>
	<polygon fill="#996699" points="61.772,162.376 69.743,163.771 69.743,157.965 61.772,159.361 	"/>
	<polygon fill="#996699" stroke="#664666" stroke-width="0.75" stroke-miterlimit="10" points="83.171,164.236 83.171,157.5 
		71.772,157.5 69.743,157.965 69.743,163.771 71.772,164.236 	"/>
	<path fill="#FFCE0C" stroke="#F8983A" stroke-width="0.5926" stroke-miterlimit="10" d="M71.659,164.236"/>
	
		<line fill="none" stroke="#664666" stroke-width="0.75" stroke-miterlimit="10" x1="68.284" y1="157.965" x2="68.284" y2="163.78"/>
	
		<line fill="none" stroke="#664666" stroke-width="0.75" stroke-miterlimit="10" x1="66.784" y1="158.314" x2="66.784" y2="163.43"/>
	
		<line fill="none" stroke="#664666" stroke-width="0.75" stroke-miterlimit="10" x1="65.284" y1="158.664" x2="65.284" y2="163.082"/>
	
		<line fill="none" stroke="#664666" stroke-width="0.75" stroke-miterlimit="10" x1="63.784" y1="158.895" x2="63.784" y2="162.85"/>
	<rect x="59.118" y="159.215" fill="#664666" width="3.486" height="3.342"/>
</g>
<g>
	
		<rect x="83.63" y="97.75" fill="#FFFFFF" stroke="#000000" stroke-width="0.5085" stroke-miterlimit="10" width="109.966" height="85.844"/>
	<g>
		<g>
			<g>
				<path fill="#010101" stroke="#FFFFFF" stroke-width="0.2021" stroke-miterlimit="10" d="M129.542,141.023"/>
			</g>
			<g>
				<path fill="#010101" stroke="#FFFFFF" stroke-width="0.2021" stroke-miterlimit="10" d="M129.542,141.023"/>
			</g>
			<g>
				<path fill="#010101" stroke="#FFFFFF" stroke-width="0.2021" stroke-miterlimit="10" d="M129.542,141.023"/>
			</g>
			<g>
				<path fill="#010101" stroke="#FFFFFF" stroke-width="0.2021" stroke-miterlimit="10" d="M129.542,141.023"/>
			</g>
		</g>
		<polyline fill="#3399CC" points="144.07,115.754 151.65,128.389 159.23,141.021 144.07,141.021 128.91,141.021 		"/>
		<polyline fill="#996699" points="144.07,115.754 128.91,115.754 113.749,115.754 121.33,128.375 128.91,141.021 		"/>
		<polyline fill="#F8983A" points="98.587,141.02 106.168,153.656 113.749,166.292 121.33,153.655 128.91,141.02 		"/>
		<polyline fill="#EF3A68" points="98.587,141.021 106.168,128.389 113.749,115.754 121.33,128.389 128.91,141.021 		"/>
		<polyline fill="#FFCE0C" points="144.07,166.292 151.65,153.655 159.23,141.02 144.07,141.02 128.91,141.02 		"/>
		<polyline fill="#6FC499" points="144.07,166.29 128.91,166.29 113.749,166.29 121.33,153.656 128.91,141.021 		"/>
		<g>
			<g>
				<g>
					
						<line fill="none" stroke="#FFFFFF" stroke-width="0.6064" stroke-miterlimit="10" x1="98.587" y1="141.018" x2="99.295" y2="141.018"/>
					
						<line fill="none" stroke="#FFFFFF" stroke-width="0.6064" stroke-miterlimit="10" stroke-dasharray="1.3765,1.3765" x1="100.671" y1="141.018" x2="127.514" y2="141.023"/>
					
						<line fill="none" stroke="#FFFFFF" stroke-width="0.6064" stroke-miterlimit="10" x1="128.202" y1="141.023" x2="128.91" y2="141.023"/>
				</g>
			</g>
			<g>
				<g>
					
						<line fill="none" stroke="#FFFFFF" stroke-width="0.6064" stroke-miterlimit="10" x1="128.91" y1="141.023" x2="129.273" y2="140.417"/>
					
						<line fill="none" stroke="#FFFFFF" stroke-width="0.6064" stroke-miterlimit="10" stroke-dasharray="1.4764,1.4764" x1="130.033" y1="139.15" x2="143.326" y2="116.994"/>
					
						<line fill="none" stroke="#FFFFFF" stroke-width="0.6064" stroke-miterlimit="10" x1="143.706" y1="116.361" x2="144.07" y2="115.754"/>
				</g>
			</g>
			<g>
				<g>
					
						<line fill="none" stroke="#FFFFFF" stroke-width="0.6064" stroke-miterlimit="10" x1="128.91" y1="141.023" x2="129.273" y2="141.629"/>
					
						<line fill="none" stroke="#FFFFFF" stroke-width="0.6064" stroke-miterlimit="10" stroke-dasharray="1.4764,1.4764" x1="130.033" y1="142.896" x2="143.326" y2="165.052"/>
					
						<line fill="none" stroke="#FFFFFF" stroke-width="0.6064" stroke-miterlimit="10" x1="143.706" y1="165.686" x2="144.07" y2="166.292"/>
				</g>
			</g>
		</g>
		<g>
			
				<line fill="none" stroke="#FFFFFF" stroke-width="0.6064" stroke-miterlimit="10" x1="159.23" y1="141.018" x2="128.91" y2="141.023"/>
			
				<line fill="none" stroke="#FFFFFF" stroke-width="0.6064" stroke-miterlimit="10" x1="128.91" y1="141.023" x2="113.749" y2="115.754"/>
			
				<line fill="none" stroke="#FFFFFF" stroke-width="0.6064" stroke-miterlimit="10" x1="128.91" y1="141.023" x2="113.749" y2="166.292"/>
		</g>
	</g>
	
		<rect x="196.566" y="103.006" fill="#FFFFFF" stroke="#000000" stroke-width="0.5085" stroke-miterlimit="10" width="6.168" height="75.684"/>
	
		<rect x="74.633" y="103.006" fill="#FFFFFF" stroke="#000000" stroke-width="0.5085" stroke-miterlimit="10" width="6.167" height="75.684"/>
	
		<line fill="none" stroke="#000000" stroke-width="5.2692" stroke-miterlimit="10" x1="81.146" y1="185.264" x2="81.146" y2="96.322"/>
	
		<line fill="none" stroke="#000000" stroke-width="5.2692" stroke-miterlimit="10" x1="196.082" y1="185.264" x2="196.082" y2="96.322"/>
	<g>
		<path d="M165.484,148.068V146.1h8.74v1.969h-3.707v3.305h3.707v1.968h-8.74v-1.968h3.343v-3.305H165.484z"/>
		<path d="M174.402,140.663c0,0.614-0.088,1.144-0.26,1.59c-0.172,0.445-0.412,0.813-0.719,1.104s-0.673,0.504-1.098,0.644
			c-0.426,0.14-0.895,0.208-1.406,0.208h-5.438v-1.968h5.272c0.354,0,0.654-0.04,0.901-0.12c0.248-0.08,0.449-0.189,0.605-0.328
			c0.155-0.139,0.268-0.307,0.334-0.504c0.067-0.198,0.102-0.414,0.102-0.65c0-0.479-0.146-0.867-0.441-1.166
			c-0.294-0.299-0.795-0.447-1.501-0.447h-5.272v-1.969h5.438c0.514,0,0.982,0.071,1.413,0.215c0.429,0.144,0.796,0.361,1.104,0.655
			c0.307,0.296,0.543,0.669,0.713,1.123C174.318,139.502,174.402,140.041,174.402,140.663z"/>
		<path d="M174.338,132.25c0,0.479-0.016,0.957-0.044,1.432c-0.028,0.477-0.099,0.971-0.208,1.482h-8.477
			c-0.075-0.404-0.133-0.846-0.17-1.325c-0.039-0.479-0.058-0.925-0.058-1.337c0-0.555,0.04-1.064,0.119-1.532
			c0.08-0.467,0.217-0.868,0.41-1.204c0.192-0.336,0.448-0.6,0.763-0.789c0.314-0.188,0.705-0.283,1.167-0.283
			c0.698,0,1.249,0.337,1.652,1.01c0.211-0.555,0.497-0.934,0.858-1.137c0.36-0.2,0.77-0.303,1.224-0.303
			c0.916,0,1.604,0.336,2.067,1.004C174.107,129.936,174.338,130.93,174.338,132.25z M168.915,133.246v-0.958
			c0-0.604-0.077-1.039-0.233-1.3c-0.154-0.26-0.404-0.391-0.75-0.391c-0.354,0-0.602,0.135-0.744,0.402
			c-0.144,0.27-0.215,0.665-0.215,1.186c0,0.17,0.002,0.351,0.006,0.543c0.006,0.193,0.017,0.365,0.033,0.518H168.915z
			 M170.416,133.246h2.258c0.018-0.143,0.03-0.298,0.038-0.467c0.009-0.168,0.013-0.354,0.013-0.555
			c0-0.589-0.084-1.063-0.252-1.426c-0.168-0.361-0.479-0.543-0.934-0.543c-0.404,0-0.691,0.151-0.864,0.454
			c-0.172,0.304-0.259,0.735-0.259,1.3V133.246L170.416,133.246z"/>
	</g>
	<rect x="128.908" y="177.84" width="16.854" height="3.154"/>
	<rect x="128.908" y="100.056" width="16.854" height="3.152"/>
</g>
<g>
	<path fill="#FFFFFF" d="M215.325,139.581c0.137-0.04,0.291-0.084,0.462-0.132c0.172-0.049,0.35-0.1,0.533-0.155
		c0.183-0.055,0.365-0.11,0.55-0.167s0.354-0.111,0.51-0.165c-0.17-0.044-0.354-0.088-0.555-0.133
		c-0.2-0.046-0.407-0.088-0.62-0.128c-0.214-0.041-0.426-0.08-0.639-0.118c-0.211-0.038-0.416-0.075-0.611-0.108v-0.811
		c0.58,0.117,1.168,0.253,1.766,0.404c0.596,0.154,1.162,0.317,1.699,0.496v0.713c-0.32,0.117-0.656,0.229-1.008,0.34
		c-0.352,0.109-0.704,0.219-1.059,0.324c0.354,0.106,0.707,0.215,1.059,0.32c0.352,0.106,0.688,0.219,1.008,0.336v0.713
		c-0.537,0.178-1.104,0.342-1.699,0.494c-0.598,0.151-1.186,0.286-1.766,0.403v-0.844c0.195-0.034,0.4-0.07,0.611-0.111
		c0.213-0.04,0.425-0.082,0.639-0.125c0.213-0.044,0.42-0.088,0.62-0.134c0.2-0.045,0.385-0.092,0.555-0.139
		c-0.163-0.061-0.337-0.119-0.521-0.176s-0.366-0.111-0.551-0.164c-0.183-0.055-0.358-0.104-0.529-0.147
		c-0.17-0.044-0.321-0.086-0.454-0.123V139.581z"/>
	<path fill="#FFFFFF" d="M215.029,136.404c0.138,0,0.244,0.045,0.322,0.133s0.117,0.193,0.117,0.313c0,0.12-0.039,0.226-0.117,0.313
		s-0.186,0.133-0.322,0.133c-0.135,0-0.243-0.045-0.322-0.133c-0.078-0.088-0.117-0.192-0.117-0.313
		c0-0.119,0.039-0.225,0.117-0.313C214.786,136.449,214.895,136.404,215.029,136.404z M218.42,136.475v0.744h-2.63v-0.744H218.42z"
		/>
	<path fill="#FFFFFF" d="M216.59,136v-1.45h0.676V136H216.59z"/>
	<path fill="#FFFFFF" d="M218.42,134.025h-3.465v-2.32h0.654v1.539h0.726v-1.369h0.655v1.369h1.43V134.025z"/>
	<path fill="#FFFFFF" d="M215.029,130.389c0.138,0,0.244,0.045,0.322,0.133s0.117,0.192,0.117,0.313
		c0,0.121-0.039,0.225-0.117,0.313c-0.078,0.09-0.186,0.134-0.322,0.134c-0.135,0-0.243-0.044-0.322-0.134
		c-0.078-0.088-0.117-0.19-0.117-0.313c0-0.119,0.039-0.225,0.117-0.313C214.786,130.434,214.895,130.389,215.029,130.389z
		 M218.42,130.458v0.746h-2.63v-0.746H218.42z"/>
</g>
</svg>
