<?xml version="1.0" encoding="utf-8"?>
<!-- Generator: Adobe Illustrator 16.0.0, SVG Export Plug-In . SVG Version: 6.00 Build 0)  -->
<!DOCTYPE svg PUBLIC "-//W3C//DTD SVG 1.1//EN" "http://www.w3.org/Graphics/SVG/1.1/DTD/svg11.dtd">
<svg version="1.1" id="Layer_1" xmlns="http://www.w3.org/2000/svg" xmlns:xlink="http://www.w3.org/1999/xlink" x="0px" y="0px"
	 width="1600px" height="720px" viewBox="0 0 1600 720" enable-background="new 0 0 1600 720" xml:space="preserve">
<g>
	<polygon fill="#3499CD" points="538.405,464 373.405,564 208.406,464 208.407,264 373.405,164 538.405,264 	"/>
	<g>
		<g>
			<path fill="#FFFFFF" d="M374.599,375.432c0,0-0.467-2.275-0.808-6.127c-0.208-1.92-0.269-4.271-0.462-6.867
				c-0.171-2.592-0.321-5.471-0.352-8.537c-0.156-3.108-0.178-6.43-0.195-9.882c-0.141-3.445-0.012-7.046-0.165-10.668
				c0.001-3.646-0.19-7.304-0.303-10.951c-0.151-1.789-0.199-3.625-0.347-5.394c-0.092-0.875-0.204-1.748-0.272-2.625
				c-0.075-0.876-0.122-1.769-0.294-2.585c-0.264-1.662-0.428-3.396-0.807-4.924c-0.176-0.776-0.293-1.6-0.475-2.35
				c-0.207-0.729-0.424-1.454-0.599-2.195c-0.872-2.819-1.8-5.421-3.063-7.58c-1.262-2.155-2.758-4.051-4.622-5.722
				c-1.853-1.669-4.068-3.087-6.412-4.226c-2.351-1.11-4.794-1.967-7.075-2.598c-2.289-0.661-4.411-1.055-6.206-1.353
				c-1.805-0.294-3.261-0.42-4.278-0.467c-0.496-0.001-0.916-0.029-1.163,0.016c-0.278,0.036-0.421,0.055-0.421,0.055
				s0.074-0.122,0.217-0.358c0.153-0.264,0.417-0.589,0.803-0.996c0.768-0.797,2.002-1.89,3.735-2.972
				c1.729-1.111,3.955-2.282,6.705-3.232c2.749-0.936,6.027-1.748,9.822-1.931c3.781-0.159,8.113,0.292,12.586,1.884
				c4.463,1.565,8.99,4.359,12.746,8.133c3.776,3.778,6.57,8.402,8.619,13.163c0.48,1.188,0.923,2.399,1.377,3.612
				c0.424,1.208,0.695,2.413,1.027,3.632c0.734,2.452,1.012,4.847,1.41,7.269c0.206,1.223,0.264,2.399,0.35,3.585
				c0.089,1.184,0.135,2.37,0.199,3.551c0.094,1.19-0.004,2.319-0.02,3.476c-0.036,1.148-0.059,2.293-0.121,3.431
				c-0.342,4.493-0.908,8.857-1.859,12.915c-0.804,4.118-2.078,7.897-3.241,11.491c-1.279,3.548-2.695,6.81-4.05,9.792
				c-1.477,2.972-2.952,5.628-4.297,7.942c-0.682,1.166-1.338,2.197-2.012,3.145c-0.658,0.95-1.253,1.826-1.838,2.604
				C376.169,373.718,374.599,375.432,374.599,375.432z"/>
		</g>
		<g>
			<g>
				<path fill="#FFFFFF" d="M367.26,367.134c0,0,1.395-1.858,4.052-4.666c1.299-1.429,3.02-3.031,4.835-4.898
					c1.828-1.845,3.883-3.865,6.159-5.921c2.225-2.177,4.696-4.395,7.27-6.696c2.487-2.389,5.269-4.679,7.878-7.194
					c2.731-2.416,5.343-4.984,8-7.485c1.239-1.3,2.582-2.552,3.809-3.834c0.593-0.649,1.173-1.312,1.785-1.944
					c0.605-0.638,1.244-1.264,1.741-1.934c1.069-1.3,2.259-2.57,3.152-3.867c0.464-0.647,1.003-1.28,1.444-1.913
					c0.409-0.639,0.808-1.281,1.247-1.903c1.533-2.521,2.866-4.941,3.646-7.318c0.777-2.373,1.205-4.749,1.221-7.252
					c0.021-2.493-0.385-5.093-1.085-7.602c-0.728-2.496-1.705-4.894-2.745-7.02c-1.021-2.152-2.134-4.002-3.101-5.543
					c-0.976-1.547-1.847-2.721-2.486-3.514c-0.328-0.371-0.585-0.705-0.783-0.86c-0.211-0.184-0.32-0.278-0.32-0.278
					s0.14-0.025,0.412-0.075c0.299-0.061,0.718-0.077,1.278-0.06c1.106,0.047,2.743,0.247,4.701,0.827
					c1.979,0.559,4.33,1.448,6.864,2.878c2.522,1.438,5.304,3.354,7.956,6.074c2.626,2.726,5.16,6.269,6.933,10.673
					c1.786,4.38,2.694,9.621,2.358,14.935c-0.326,5.333-1.936,10.489-4.143,15.179c-0.571,1.147-1.186,2.281-1.793,3.425
					c-0.623,1.119-1.346,2.12-2.038,3.178c-1.349,2.174-2.958,3.969-4.508,5.873c-0.778,0.964-1.622,1.787-2.452,2.637
					c-0.828,0.853-1.686,1.673-2.527,2.504c-0.83,0.858-1.738,1.534-2.615,2.289c-0.884,0.734-1.756,1.476-2.648,2.183
					c-3.591,2.723-7.234,5.191-10.903,7.168c-3.616,2.128-7.291,3.68-10.753,5.189c-3.504,1.394-6.885,2.496-10.016,3.458
					c-3.203,0.864-6.17,1.521-8.794,2.048c-1.325,0.262-2.532,0.455-3.688,0.577c-1.148,0.138-2.198,0.272-3.168,0.35
					C369.584,367.174,367.26,367.134,367.26,367.134z"/>
				<path fill="#FFFFFF" d="M370.755,352.177c0,0,1.88,1.364,4.731,3.976c1.449,1.276,3.08,2.97,4.976,4.756
					c1.875,1.797,3.929,3.819,6.021,6.062c2.213,2.188,4.471,4.624,6.813,7.16c2.429,2.447,4.764,5.191,7.322,7.76
					c2.46,2.691,5.071,5.261,7.615,7.877c1.32,1.218,2.594,2.54,3.896,3.746c0.658,0.583,1.331,1.151,1.973,1.753
					c0.647,0.595,1.284,1.223,1.961,1.709c1.316,1.048,2.606,2.217,3.918,3.089c0.654,0.454,1.297,0.982,1.937,1.413
					c0.645,0.398,1.294,0.787,1.923,1.216c2.547,1.492,4.987,2.785,7.377,3.525c2.386,0.739,4.769,1.128,7.271,1.104
					c2.493-0.019,5.086-0.468,7.584-1.208c2.483-0.768,4.865-1.784,6.974-2.858c2.136-1.057,3.968-2.198,5.493-3.19
					c1.53-1,2.69-1.89,3.473-2.542c0.366-0.334,0.695-0.596,0.848-0.796c0.181-0.214,0.273-0.324,0.273-0.324
					s0.028,0.14,0.082,0.411c0.064,0.298,0.089,0.716,0.079,1.276c-0.029,1.106-0.202,2.746-0.751,4.713
					c-0.526,1.988-1.378,4.354-2.767,6.91c-1.396,2.545-3.268,5.357-5.945,8.053c-2.683,2.67-6.184,5.261-10.559,7.104
					c-4.351,1.856-9.576,2.85-14.895,2.601c-5.337-0.239-10.519-1.766-15.244-3.896c-1.156-0.552-2.3-1.147-3.454-1.736
					c-1.129-0.604-2.141-1.311-3.21-1.985c-2.196-1.314-4.017-2.894-5.945-4.413c-0.977-0.762-1.814-1.592-2.677-2.408
					c-0.865-0.813-1.699-1.658-2.544-2.485c-0.873-0.816-1.562-1.714-2.331-2.578c-0.749-0.872-1.504-1.731-2.226-2.613
					c-2.781-3.546-5.308-7.148-7.345-10.784c-2.187-3.581-3.797-7.23-5.364-10.667c-1.451-3.481-2.607-6.844-3.62-9.959
					c-0.917-3.188-1.621-6.146-2.19-8.761c-0.284-1.32-0.497-2.523-0.638-3.678c-0.156-1.146-0.309-2.193-0.401-3.162
					C370.753,354.501,370.755,352.177,370.755,352.177z"/>
				<path fill="#FFFFFF" d="M381.521,371.677c0,0-1.916-1.314-4.833-3.851c-1.482-1.238-3.156-2.889-5.098-4.624
					c-1.921-1.749-4.027-3.717-6.177-5.903c-2.27-2.13-4.59-4.506-6.998-6.98c-2.493-2.383-4.898-5.065-7.522-7.566
					c-2.53-2.626-5.206-5.127-7.817-7.675c-1.351-1.184-2.659-2.473-3.992-3.644c-0.673-0.565-1.36-1.117-2.018-1.701
					c-0.663-0.578-1.315-1.188-2.005-1.657c-1.344-1.014-2.664-2.148-3.998-2.986c-0.666-0.437-1.322-0.947-1.973-1.362
					c-0.655-0.381-1.314-0.753-1.954-1.165c-2.584-1.425-5.058-2.654-7.466-3.332c-2.404-0.677-4.796-1.003-7.297-0.913
					c-2.492,0.084-5.072,0.601-7.549,1.406c-2.463,0.832-4.816,1.911-6.896,3.04c-2.107,1.111-3.908,2.302-5.407,3.333
					c-1.504,1.041-2.64,1.96-3.405,2.633c-0.357,0.343-0.679,0.613-0.826,0.818c-0.174,0.218-0.265,0.331-0.265,0.331
					s-0.032-0.139-0.093-0.409c-0.073-0.296-0.108-0.713-0.114-1.273c0-1.107,0.13-2.751,0.627-4.731
					c0.474-2.001,1.263-4.389,2.584-6.98c1.329-2.581,3.126-5.441,5.732-8.206c2.612-2.739,6.044-5.421,10.37-7.379
					c4.301-1.969,9.499-3.099,14.822-2.988c5.342,0.101,10.562,1.491,15.34,3.497c1.17,0.522,2.33,1.088,3.498,1.646
					c1.144,0.575,2.174,1.255,3.261,1.901c2.229,1.256,4.091,2.788,6.058,4.256c0.997,0.736,1.854,1.544,2.739,2.338
					c0.886,0.791,1.742,1.613,2.608,2.419c0.893,0.793,1.606,1.672,2.397,2.516c0.771,0.853,1.549,1.692,2.293,2.555
					c2.872,3.473,5.492,7.008,7.624,10.59c2.279,3.522,3.984,7.128,5.64,10.523c1.541,3.441,2.785,6.773,3.878,9.86
					c1,3.164,1.781,6.102,2.418,8.7c0.317,1.313,0.562,2.511,0.733,3.661c0.186,1.141,0.366,2.184,0.484,3.15
					C381.463,369.354,381.521,371.677,381.521,371.677z"/>
				<path fill="#FFFFFF" d="M384.698,361.865c0,0-1.478,1.792-4.262,4.476c-1.364,1.367-3.155,2.89-5.055,4.671
					c-1.911,1.76-4.057,3.684-6.424,5.633c-2.322,2.072-4.893,4.175-7.569,6.355c-2.594,2.272-5.478,4.433-8.2,6.825
					c-2.839,2.289-5.566,4.734-8.334,7.111c-1.297,1.241-2.697,2.431-3.981,3.655c-0.623,0.621-1.232,1.257-1.872,1.86
					c-0.634,0.609-1.3,1.205-1.828,1.852c-1.127,1.249-2.375,2.465-3.326,3.719c-0.494,0.625-1.061,1.233-1.531,1.845
					c-0.438,0.619-0.866,1.243-1.333,1.844c-1.648,2.449-3.09,4.805-3.978,7.144c-0.886,2.335-1.422,4.689-1.553,7.189
					c-0.136,2.489,0.15,5.104,0.734,7.644c0.612,2.526,1.479,4.966,2.42,7.138c0.922,2.196,1.948,4.096,2.843,5.68
					c0.904,1.59,1.72,2.803,2.322,3.623c0.311,0.387,0.552,0.731,0.742,0.896c0.203,0.193,0.307,0.293,0.307,0.293
					s-0.142,0.02-0.416,0.057c-0.301,0.046-0.72,0.044-1.279,0c-1.103-0.098-2.729-0.372-4.658-1.042
					c-1.951-0.647-4.26-1.645-6.725-3.189c-2.454-1.552-5.145-3.594-7.669-6.434c-2.498-2.843-4.866-6.498-6.435-10.979
					c-1.583-4.458-2.25-9.734-1.669-15.027c0.57-5.312,2.415-10.389,4.835-14.972c0.623-1.12,1.289-2.225,1.948-3.339
					c0.673-1.09,1.441-2.056,2.181-3.081c1.447-2.11,3.137-3.829,4.773-5.66c0.821-0.928,1.702-1.711,2.57-2.521
					c0.866-0.813,1.76-1.594,2.639-2.385c0.869-0.82,1.808-1.453,2.718-2.167c0.917-0.693,1.822-1.394,2.746-2.06
					c3.712-2.555,7.464-4.854,11.22-6.66c3.709-1.96,7.452-3.341,10.979-4.691c3.564-1.231,6.992-2.177,10.164-2.994
					c3.24-0.717,6.234-1.236,8.879-1.643c1.336-0.2,2.55-0.338,3.711-0.408c1.153-0.084,2.208-0.171,3.181-0.204
					C382.379,361.719,384.698,361.865,384.698,361.865z"/>
			</g>
		</g>
		<g>
			<g>
				<path fill="#FFFFFF" d="M367.485,362.264c0,0,2.293-0.37,6.156-0.548c1.927-0.127,4.277-0.087,6.881-0.171
					c2.597-0.061,5.479-0.089,8.543,0.011c3.113-0.024,6.432,0.094,9.881,0.223c3.449,0.006,7.041,0.287,10.666,0.287
					c3.643,0.155,7.306,0.118,10.955,0.161c1.794-0.076,3.63-0.046,5.403-0.117c0.878-0.056,1.755-0.131,2.634-0.162
					c0.879-0.039,1.772-0.047,2.596-0.184c1.672-0.194,3.41-0.283,4.953-0.598c0.784-0.143,1.611-0.226,2.368-0.375
					c0.737-0.176,1.471-0.361,2.218-0.505c2.854-0.752,5.492-1.569,7.703-2.739c2.206-1.169,4.163-2.584,5.911-4.375
					c1.746-1.78,3.257-3.934,4.493-6.227c1.208-2.303,2.167-4.707,2.894-6.959c0.758-2.259,1.24-4.363,1.613-6.144
					c0.37-1.791,0.558-3.241,0.647-4.255c0.021-0.495,0.068-0.913,0.033-1.162c-0.024-0.279-0.037-0.423-0.037-0.423
					s0.119,0.079,0.35,0.231c0.257,0.164,0.57,0.442,0.961,0.844c0.764,0.802,1.804,2.081,2.811,3.857
					c1.039,1.774,2.114,4.047,2.947,6.835c0.819,2.785,1.492,6.096,1.515,9.896c-0.001,3.784-0.634,8.094-2.414,12.495
					c-1.753,4.394-4.735,8.798-8.665,12.391c-3.936,3.614-8.673,6.21-13.517,8.055c-1.208,0.43-2.437,0.82-3.668,1.222
					c-1.225,0.373-2.439,0.593-3.672,0.874c-2.48,0.629-4.885,0.805-7.321,1.101c-1.23,0.154-2.408,0.161-3.596,0.197
					c-1.188,0.039-2.375,0.034-3.557,0.049c-1.194,0.042-2.317-0.103-3.472-0.167c-1.146-0.085-2.289-0.155-3.423-0.266
					c-4.475-0.532-8.811-1.282-12.824-2.405c-4.08-0.977-7.803-2.41-11.344-3.725c-3.49-1.429-6.689-2.981-9.611-4.461
					c-2.907-1.601-5.499-3.188-7.753-4.629c-1.136-0.731-2.139-1.429-3.057-2.144c-0.922-0.697-1.772-1.328-2.524-1.946
					C369.13,363.904,367.485,362.264,367.485,362.264z"/>
				<path fill="#FFFFFF" d="M380.38,353.92c0,0,0.408,2.287,0.648,6.146c0.158,1.925,0.157,4.276,0.283,6.878
					c0.103,2.595,0.178,5.477,0.129,8.542c0.075,3.112,0.01,6.433-0.063,9.884c0.051,3.448-0.172,7.045-0.113,10.669
					c-0.096,3.646,0,7.307,0.017,10.955c0.105,1.793,0.105,3.63,0.206,5.401c0.07,0.877,0.159,1.753,0.205,2.631
					c0.053,0.878,0.076,1.771,0.227,2.592c0.221,1.669,0.338,3.405,0.678,4.943c0.156,0.781,0.252,1.606,0.414,2.361
					c0.188,0.734,0.385,1.465,0.541,2.21c0.798,2.842,1.658,5.466,2.865,7.657c1.205,2.188,2.651,4.121,4.47,5.84
					c1.809,1.717,3.986,3.192,6.299,4.393c2.322,1.17,4.742,2.091,7.005,2.781c2.271,0.721,4.382,1.169,6.169,1.513
					c1.796,0.342,3.249,0.506,4.264,0.579c0.496,0.014,0.915,0.054,1.163,0.015c0.278-0.029,0.422-0.044,0.422-0.044
					s-0.077,0.12-0.226,0.353c-0.16,0.26-0.433,0.578-0.829,0.976c-0.789,0.776-2.051,1.836-3.811,2.872
					c-1.758,1.066-4.012,2.18-6.787,3.057c-2.771,0.864-6.07,1.591-9.869,1.675c-3.784,0.061-8.103-0.504-12.533-2.212
					c-4.42-1.682-8.873-4.592-12.529-8.463c-3.677-3.876-6.35-8.57-8.273-13.383c-0.45-1.2-0.86-2.423-1.282-3.647
					c-0.393-1.219-0.632-2.43-0.934-3.657c-0.669-2.47-0.884-4.871-1.219-7.303c-0.174-1.228-0.201-2.405-0.256-3.592
					c-0.058-1.187-0.073-2.374-0.107-3.556c-0.062-1.192,0.064-2.317,0.11-3.474c0.066-1.147,0.118-2.291,0.21-3.427
					c0.458-4.482,1.139-8.83,2.195-12.861c0.911-4.096,2.283-7.842,3.54-11.403c1.371-3.513,2.872-6.737,4.304-9.683
					c1.553-2.933,3.097-5.55,4.501-7.828c0.713-1.147,1.395-2.161,2.093-3.091c0.683-0.933,1.3-1.793,1.906-2.556
					C378.766,355.592,380.38,353.92,380.38,353.92z"/>
				<path fill="#FFFFFF" d="M379.074,365.534c0,0-2.289,0.396-6.149,0.619c-1.925,0.149-4.276,0.137-6.878,0.251
					c-2.596,0.09-5.478,0.152-8.543,0.088c-3.112,0.061-6.432-0.02-9.883-0.109c-3.448,0.035-7.043-0.205-10.668-0.162
					c-3.645-0.113-7.306-0.034-10.955-0.035c-1.793,0.097-3.63,0.088-5.401,0.181c-0.877,0.065-1.754,0.15-2.632,0.192
					c-0.878,0.049-1.772,0.066-2.593,0.214c-1.669,0.213-3.407,0.322-4.946,0.654c-0.782,0.152-1.608,0.244-2.363,0.402
					c-0.735,0.185-1.466,0.378-2.212,0.53c-2.845,0.785-5.474,1.633-7.67,2.829c-2.193,1.194-4.134,2.632-5.861,4.442
					c-1.726,1.801-3.211,3.972-4.422,6.278c-1.181,2.315-2.113,4.731-2.813,6.992c-0.731,2.267-1.19,4.376-1.543,6.161
					c-0.35,1.795-0.521,3.247-0.599,4.262c-0.016,0.495-0.058,0.914-0.021,1.163c0.028,0.278,0.042,0.422,0.042,0.422
					s-0.12-0.077-0.352-0.228c-0.258-0.161-0.575-0.436-0.971-0.833c-0.772-0.793-1.827-2.061-2.854-3.825
					c-1.058-1.763-2.16-4.022-3.025-6.801c-0.851-2.775-1.562-6.077-1.627-9.876c-0.043-3.784,0.541-8.101,2.27-12.522
					c1.703-4.413,4.634-8.852,8.521-12.489c3.893-3.659,8.6-6.31,13.422-8.21c1.202-0.444,2.427-0.849,3.653-1.265
					c1.221-0.388,2.433-0.621,3.662-0.916c2.473-0.658,4.875-0.861,7.308-1.185c1.228-0.169,2.406-0.19,3.593-0.239
					c1.187-0.053,2.374-0.063,3.556-0.091c1.193-0.056,2.317,0.076,3.473,0.127c1.147,0.071,2.29,0.129,3.425,0.227
					c4.48,0.479,8.825,1.181,12.851,2.256c4.091,0.93,7.83,2.32,11.386,3.594c3.506,1.388,6.723,2.903,9.662,4.35
					c2.925,1.566,5.535,3.123,7.806,4.538c1.145,0.718,2.155,1.404,3.081,2.107c0.93,0.688,1.787,1.309,2.546,1.918
					C377.41,363.912,379.074,365.534,379.074,365.534z"/>
				<path fill="#FFFFFF" d="M374.599,375.432c0,0-0.467-2.275-0.808-6.127c-0.208-1.92-0.269-4.271-0.462-6.867
					c-0.17-2.592-0.321-5.471-0.351-8.537c-0.156-3.108-0.178-6.43-0.195-9.882c-0.141-3.445-0.012-7.046-0.166-10.668
					c0.001-3.646-0.19-7.304-0.303-10.951c-0.152-1.789-0.199-3.625-0.346-5.394c-0.092-0.875-0.205-1.748-0.273-2.625
					c-0.076-0.876-0.122-1.769-0.294-2.585c-0.264-1.662-0.427-3.396-0.807-4.924c-0.176-0.776-0.293-1.6-0.475-2.35
					c-0.207-0.729-0.423-1.454-0.599-2.195c-0.872-2.819-1.8-5.421-3.063-7.58c-1.262-2.155-2.758-4.051-4.622-5.722
					c-1.853-1.669-4.068-3.087-6.412-4.226c-2.351-1.11-4.794-1.967-7.075-2.598c-2.289-0.661-4.411-1.055-6.206-1.353
					c-1.805-0.294-3.261-0.42-4.278-0.467c-0.496-0.001-0.916-0.029-1.163,0.016c-0.278,0.036-0.421,0.055-0.421,0.055
					s0.074-0.122,0.217-0.358c0.153-0.264,0.417-0.589,0.803-0.996c0.768-0.797,2.002-1.89,3.735-2.972
					c1.729-1.111,3.955-2.282,6.705-3.232c2.749-0.936,6.027-1.748,9.822-1.931c3.781-0.159,8.113,0.292,12.586,1.884
					c4.463,1.565,8.99,4.359,12.746,8.133c3.776,3.778,6.571,8.402,8.619,13.163c0.481,1.188,0.923,2.399,1.376,3.612
					c0.425,1.208,0.695,2.413,1.029,3.632c0.733,2.452,1.011,4.847,1.409,7.269c0.207,1.223,0.264,2.399,0.35,3.585
					c0.089,1.184,0.135,2.37,0.199,3.551c0.093,1.19-0.004,2.319-0.02,3.476c-0.036,1.148-0.059,2.293-0.121,3.431
					c-0.341,4.493-0.908,8.857-1.859,12.915c-0.804,4.118-2.078,7.897-3.241,11.491c-1.279,3.548-2.695,6.81-4.05,9.792
					c-1.476,2.972-2.952,5.628-4.296,7.942c-0.682,1.166-1.337,2.197-2.012,3.145c-0.658,0.95-1.252,1.826-1.838,2.604
					C376.168,373.718,374.598,375.432,374.599,375.432z"/>
			</g>
		</g>
	</g>
	<g>
		<path fill="#231F20" d="M610.069,502.477v-277.2h187.2v52.4h-124.8v54.399h110.8v51.2h-110.8v66.8h134v52.4H610.069z"/>
		<path fill="#231F20" d="M1109.268,363.677c0,23.737-3.537,44.6-10.6,62.6c-7.069,18-16.738,33.069-29,45.2
			c-12.27,12.138-26.869,21.269-43.801,27.4c-16.938,6.131-35.137,9.199-54.6,9.199c-18.938,0-36.8-3.068-53.6-9.199
			c-16.801-6.132-31.469-15.263-44-27.4c-12.538-12.131-22.4-27.2-29.601-45.2s-10.8-38.862-10.8-62.6
			c0-23.731,3.731-44.601,11.2-62.601c7.462-18,17.531-33.131,30.2-45.399c12.662-12.263,27.331-21.463,44-27.601
			c16.662-6.131,34.199-9.199,52.6-9.199c18.932,0,36.8,3.068,53.6,9.199c16.801,6.138,31.463,15.338,44,27.601
			c12.531,12.269,22.4,27.399,29.601,45.399S1109.268,339.945,1109.268,363.677z M897.668,363.677c0,13.6,1.662,25.868,5,36.8
			c3.331,10.938,8.131,20.338,14.399,28.2c6.263,7.868,13.932,13.938,23,18.2c9.063,4.269,19.463,6.399,31.2,6.399
			c11.463,0,21.8-2.131,31-6.399c9.2-4.263,16.932-10.332,23.2-18.2c6.263-7.862,11.063-17.263,14.399-28.2
			c3.332-10.932,5-23.2,5-36.8c0-13.601-1.668-25.932-5-37c-3.337-11.063-8.137-20.531-14.399-28.4
			c-6.269-7.862-14-13.931-23.2-18.2c-9.2-4.262-19.537-6.399-31-6.399c-11.737,0-22.138,2.2-31.2,6.6
			c-9.068,4.4-16.737,10.538-23,18.4c-6.269,7.868-11.068,17.337-14.399,28.399C899.33,338.146,897.668,350.346,897.668,363.677z"/>
		<path fill="#231F20" d="M1236.864,454.877c8.801,0,16.063-0.731,21.801-2.2c5.73-1.463,10.331-3.463,13.8-6
			c3.462-2.531,5.862-5.531,7.2-9c1.331-3.463,2-7.331,2-11.601c0-9.063-4.27-16.6-12.801-22.6c-8.537-6-23.199-12.463-44-19.4
			c-9.068-3.199-18.137-6.862-27.199-11c-9.069-4.131-17.2-9.331-24.4-15.6c-7.2-6.263-13.068-13.862-17.6-22.8
			c-4.538-8.932-6.801-19.8-6.801-32.601c0-12.8,2.4-24.331,7.2-34.6c4.8-10.263,11.601-19,20.4-26.2s19.462-12.731,32-16.6
			c12.531-3.862,26.662-5.8,42.399-5.8c18.663,0,34.801,2,48.4,6s24.8,8.399,33.6,13.199l-18,49.2c-7.737-4-16.337-7.531-25.8-10.6
			c-9.469-3.063-20.868-4.601-34.2-4.601c-14.938,0-25.668,2.069-32.199,6.2c-6.538,4.138-9.801,10.469-9.801,19
			c0,5.069,1.2,9.338,3.601,12.8c2.399,3.469,5.8,6.601,10.2,9.4c4.399,2.8,9.462,5.338,15.199,7.6c5.731,2.27,12.063,4.601,19,7
			c14.4,5.338,26.932,10.601,37.601,15.801c10.662,5.199,19.531,11.269,26.6,18.199c7.063,6.938,12.331,15.069,15.8,24.4
			c3.463,9.338,5.2,20.669,5.2,34c0,25.869-9.068,45.938-27.2,60.2c-18.137,14.269-45.469,21.399-82,21.399
			c-12.269,0-23.337-0.737-33.199-2.199c-9.869-1.469-18.601-3.27-26.2-5.4c-7.601-2.131-14.138-4.4-19.601-6.8
			c-5.469-2.4-10.068-4.663-13.8-6.8l17.601-49.601c8.262,4.538,18.462,8.601,30.6,12.2
			C1204.396,453.076,1219.265,454.877,1236.864,454.877z"/>
	</g>
</g>
</svg>
