<?xml version="1.0" encoding="utf-8"?>
<!-- Generator: Adobe Illustrator 16.0.0, SVG Export Plug-In . SVG Version: 6.00 Build 0)  -->
<!DOCTYPE svg PUBLIC "-//W3C//DTD SVG 1.1//EN" "http://www.w3.org/Graphics/SVG/1.1/DTD/svg11.dtd">
<svg version="1.1" id="Layer_1" xmlns="http://www.w3.org/2000/svg" xmlns:xlink="http://www.w3.org/1999/xlink" x="0px" y="0px"
	 width="420px" height="350px" viewBox="41.5 80 420 350" enable-background="new 41.5 80 420 350" xml:space="preserve">
<g>
	<path fill="none" stroke="#6C6C6C" stroke-width="0.8728" stroke-miterlimit="10" d="M192.932,115.292c0,0,82.41,0,109.684,0
		c27.275,0,108.508,0,108.508,0"/>
	<path fill="#161616" d="M406.761,119.655c0,0-77.962,0-104.146,0c-26.183,0-105.319,0-105.319,0v75.063h209.464V119.655z"/>
	
		<rect x="323.855" y="156.068" fill="#FFFFFF" stroke="#6C6C6C" stroke-width="2.6183" stroke-miterlimit="10" width="84.652" height="4.073"/>
	
		<line fill="none" stroke="#151515" stroke-width="8.7277" stroke-miterlimit="10" x1="192.932" y1="199.078" x2="411.124" y2="199.078"/>
	<path fill="none" stroke="#FFFFFF" stroke-width="8.7277" stroke-miterlimit="10" d="M192.932,119.655c0,0,82.41,0,109.684,0
		c27.275,0,108.508,0,108.508,0"/>
	<rect x="188.569" y="110.928" fill="#6C6C6C" width="8.729" height="96.005"/>
	<rect x="406.761" y="110.928" fill="#6C6C6C" width="8.728" height="96.005"/>
	<circle fill="none" stroke="#6C6C6C" stroke-width="4.3638" stroke-miterlimit="10" cx="288.507" cy="158.104" r="14.11"/>
	<circle fill="none" stroke="#6C6C6C" stroke-width="2.6992" stroke-miterlimit="10" cx="244.869" cy="158.104" r="8.728"/>
	<circle fill="none" stroke="#3398CC" stroke-width="2.6183" stroke-miterlimit="10" cx="244.869" cy="158.104" r="5.457"/>
	<circle fill="none" stroke="#FFCE0C" stroke-width="2.6992" stroke-miterlimit="10" cx="288.507" cy="158.104" r="8.728"/>
	<circle fill="#FFCE0C" cx="288.507" cy="158.104" r="5.457"/>
	<rect x="252.276" y="196.754" fill="#FFFFFF" width="25.752" height="4.654"/>
	<rect x="322.097" y="196.754" fill="#FFFFFF" width="25.752" height="4.654"/>
	<path fill="#F8C18F" d="M126.46,282.082c-7.21,7.344-11.253,17.216-11.253,27.525v62.06c0,7.547,4.515,14.386,11.455,17.317
		c6.975,2.932,14.991,1.414,20.417-3.842l55.793-54.242c2.021-1.955,4.717-3.066,7.547-3.066h130.25
		c3.739,0,7.514-1.213,10.714-3.705l72.269-56.838c7.513-5.93,8.826-16.846,2.896-24.359c-5.931-7.551-16.847-8.831-24.358-2.896
		l-46.966,36.959c-1.92,1.481-4.245,2.291-6.671,2.291H237.002c-5.964,0-10.781-4.818-10.781-10.781s4.817-10.813,10.781-10.813
		h65.496c9.603,0,17.352-7.75,17.352-17.318c0-9.605-7.749-17.351-17.352-17.351h-90.361c-14.621,0-28.738,5.555-39.418,15.595
		L126.46,282.082L126.46,282.082z"/>
	<rect x="72.737" y="256.072" fill="#6FC498" width="74" height="143"/>
	<circle fill="#F7D5BA" cx="299.738" cy="240.572" r="10.75"/>
</g>
</svg>
