<?xml version="1.0" encoding="utf-8"?>
<!-- Generator: Adobe Illustrator 16.0.0, SVG Export Plug-In . SVG Version: 6.00 Build 0)  -->
<!DOCTYPE svg PUBLIC "-//W3C//DTD SVG 1.1//EN" "http://www.w3.org/Graphics/SVG/1.1/DTD/svg11.dtd">
<svg version="1.1" id="Layer_1" xmlns="http://www.w3.org/2000/svg" xmlns:xlink="http://www.w3.org/1999/xlink" x="0px" y="0px"
	 width="200px" height="200px" viewBox="-137.194 371.16 200 200" enable-background="new -137.194 371.16 200 200"
	 xml:space="preserve">
<rect x="-137.194" y="371.16" fill="#F89839" width="200" height="200"/>
<g>
	<g>
		
			<rect x="-82.734" y="411.36" fill="none" stroke="#FFFFFF" stroke-width="11.7772" stroke-miterlimit="10" width="91.08" height="68.313"/>
		
			<rect x="-59.967" y="479.954" fill="none" stroke="#FFFFFF" stroke-width="11.7772" stroke-miterlimit="10" width="45.544" height="9.107"/>
		
			<rect x="-48.58" y="490.264" fill="none" stroke="#FFFFFF" stroke-width="11.7772" stroke-miterlimit="10" width="22.771" height="4.555"/>
	</g>
	<g>
		<rect x="-87.814" y="514.356" fill="none" width="101.238" height="26.603"/>
		<path fill="#FFFFFF" d="M-71.762,520.732c0.543-0.226,1.11-0.479,1.7-0.771c0.59-0.29,1.166-0.608,1.729-0.955
			c0.562-0.348,1.1-0.711,1.613-1.098c0.517-0.383,0.979-0.791,1.393-1.223h2.922v19.469h-4.187v-14.019
			c-0.563,0.375-1.188,0.716-1.883,1.024c-0.691,0.31-1.367,0.574-2.021,0.801L-71.762,520.732z"/>
		<path fill="#FFFFFF" d="M-42.771,526.379c0,3.276-0.623,5.792-1.868,7.543c-1.244,1.751-2.963,2.627-5.154,2.627
			c-2.19,0-3.909-0.876-5.154-2.627c-1.246-1.751-1.868-4.267-1.868-7.543c0-1.631,0.164-3.071,0.492-4.326
			c0.328-1.254,0.801-2.313,1.418-3.174c0.618-0.861,1.357-1.52,2.219-1.969c0.861-0.447,1.826-0.674,2.895-0.674
			c2.19,0,3.909,0.875,5.154,2.626C-43.393,520.616-42.771,523.12-42.771,526.379z M-47.041,526.379
			c0-0.976-0.048-1.857-0.142-2.654c-0.094-0.796-0.243-1.483-0.449-2.063c-0.206-0.581-0.486-1.028-0.844-1.35
			c-0.354-0.317-0.796-0.479-1.319-0.479s-0.96,0.159-1.307,0.479c-0.347,0.318-0.628,0.769-0.843,1.35
			c-0.215,0.58-0.37,1.271-0.463,2.063c-0.094,0.797-0.142,1.682-0.142,2.654c0,0.976,0.047,1.862,0.142,2.669
			c0.093,0.807,0.248,1.499,0.463,2.079s0.496,1.028,0.843,1.349c0.347,0.318,0.782,0.479,1.307,0.479
			c0.523,0,0.965-0.157,1.319-0.479c0.355-0.317,0.638-0.769,0.844-1.349s0.354-1.272,0.449-2.079
			C-47.089,528.243-47.041,527.354-47.041,526.379z"/>
		<path fill="#FFFFFF" d="M-26.815,526.379c0,3.276-0.623,5.792-1.868,7.543s-2.963,2.627-5.154,2.627
			c-2.19,0-3.909-0.876-5.154-2.627c-1.246-1.751-1.868-4.267-1.868-7.543c0-1.631,0.164-3.071,0.492-4.326
			c0.328-1.254,0.801-2.313,1.418-3.174c0.618-0.861,1.357-1.52,2.219-1.969c0.861-0.447,1.826-0.674,2.895-0.674
			c2.19,0,3.908,0.875,5.154,2.626C-27.437,520.616-26.815,523.12-26.815,526.379z M-31.085,526.379
			c0-0.976-0.048-1.857-0.142-2.654c-0.094-0.796-0.244-1.483-0.449-2.063c-0.206-0.581-0.486-1.028-0.844-1.35
			c-0.354-0.317-0.796-0.479-1.319-0.479s-0.96,0.159-1.307,0.479c-0.347,0.318-0.628,0.769-0.843,1.35
			c-0.215,0.58-0.37,1.271-0.463,2.063c-0.095,0.797-0.142,1.682-0.142,2.654c0,0.976,0.046,1.862,0.142,2.669
			c0.093,0.807,0.248,1.499,0.463,2.079s0.496,1.028,0.843,1.349c0.347,0.318,0.782,0.479,1.307,0.479
			c0.523,0,0.965-0.157,1.319-0.479c0.355-0.317,0.638-0.769,0.844-1.349c0.205-0.58,0.354-1.272,0.449-2.079
			C-31.133,528.243-31.085,527.354-31.085,526.379z"/>
		<path fill="#FFFFFF" d="M-18.443,516.688c0.338,0.617,0.728,1.382,1.168,2.288c0.441,0.909,0.901,1.894,1.38,2.95
			c0.479,1.06,0.953,2.141,1.422,3.244c0.47,1.104,0.911,2.146,1.324,3.116c0.413-0.973,0.854-2.013,1.324-3.116
			c0.469-1.104,0.942-2.188,1.422-3.244c0.479-1.06,0.938-2.041,1.38-2.95c0.441-0.906,0.831-1.671,1.169-2.288h3.989
			c0.187,1.291,0.359,2.738,0.52,4.34c0.159,1.604,0.3,3.271,0.422,5.001c0.122,1.731,0.233,3.469,0.337,5.211
			c0.104,1.741,0.19,3.381,0.268,4.916H-6.59c-0.057-1.893-0.132-3.951-0.226-6.182c-0.094-2.229-0.233-4.478-0.421-6.74
			c-0.338,0.785-0.714,1.656-1.127,2.611s-0.822,1.91-1.227,2.863c-0.403,0.955-0.794,1.868-1.169,2.739
			c-0.376,0.87-0.694,1.614-0.958,2.232h-3.063c-0.264-0.618-0.583-1.362-0.958-2.232c-0.375-0.871-0.767-1.784-1.17-2.739
			c-0.404-0.953-0.813-1.908-1.226-2.863c-0.414-0.955-0.79-1.826-1.127-2.611c-0.188,2.266-0.328,4.513-0.422,6.74
			c-0.094,2.229-0.168,4.289-0.225,6.182h-4.271c0.074-1.535,0.163-3.175,0.268-4.916c0.103-1.742,0.215-3.479,0.337-5.211
			c0.122-1.73,0.262-3.397,0.421-5.001c0.159-1.602,0.332-3.048,0.521-4.34H-18.443z"/>
	</g>
</g>
<rect x="-59.106" y="469.716" fill="#F89839" width="43.82" height="12.889"/>
<rect x="-45.834" y="472.705" fill="#F89839" width="17.277" height="6.91"/>
</svg>
