<?xml version="1.0" encoding="utf-8"?>
<!-- Generator: Adobe Illustrator 16.0.0, SVG Export Plug-In . SVG Version: 6.00 Build 0)  -->
<!DOCTYPE svg PUBLIC "-//W3C//DTD SVG 1.1//EN" "http://www.w3.org/Graphics/SVG/1.1/DTD/svg11.dtd">
<svg version="1.1" id="Layer_1" xmlns="http://www.w3.org/2000/svg" xmlns:xlink="http://www.w3.org/1999/xlink" x="0px" y="0px"
	 width="200px" height="200px" viewBox="550.044 371.16 200 200" enable-background="new 550.044 371.16 200 200"
	 xml:space="preserve">
<rect x="550.044" y="371.16" fill="#FFFFFF" width="200" height="200"/>
<g>
	<g>
		<rect x="602.866" y="508.487" fill="none" width="94.355" height="21.342"/>
		<path d="M645.27,514.974c0,0.621-0.123,1.22-0.367,1.787c-0.244,0.572-0.563,1.123-0.955,1.654
			c-0.393,0.529-0.832,1.039-1.322,1.529c-0.487,0.489-0.973,0.955-1.442,1.396c-0.244,0.229-0.512,0.486-0.797,0.771
			c-0.285,0.284-0.562,0.575-0.82,0.868c-0.26,0.296-0.492,0.566-0.697,0.818c-0.203,0.254-0.33,0.463-0.379,0.625h7.297v3.063
			h-11.313c-0.031-0.181-0.049-0.408-0.049-0.687c0-0.277,0-0.475,0-0.59c0-0.783,0.125-1.502,0.379-2.152
			c0.254-0.651,0.584-1.264,0.992-1.823c0.405-0.564,0.868-1.091,1.383-1.58c0.516-0.49,1.022-0.98,1.53-1.47
			c0.394-0.377,0.761-0.729,1.104-1.065c0.342-0.334,0.646-0.66,0.904-0.979c0.262-0.317,0.467-0.639,0.61-0.955
			c0.148-0.317,0.224-0.643,0.224-0.969c0-0.719-0.203-1.225-0.611-1.52c-0.408-0.293-0.916-0.439-1.52-0.439
			c-0.439,0-0.854,0.068-1.236,0.207c-0.385,0.141-0.734,0.305-1.055,0.49c-0.316,0.188-0.593,0.375-0.818,0.563
			c-0.23,0.188-0.4,0.34-0.516,0.453l-1.813-2.549c0.717-0.668,1.555-1.219,2.51-1.65c0.955-0.434,1.979-0.647,3.072-0.647
			c0.996,0,1.854,0.113,2.572,0.342c0.719,0.23,1.311,0.553,1.772,0.969c0.468,0.418,0.81,0.925,1.029,1.521
			C645.159,513.552,645.27,514.224,645.27,514.974z"/>
		<path d="M652.323,525.556c0,0.734-0.229,1.295-0.697,1.681c-0.465,0.383-0.991,0.573-1.577,0.573c-0.589,0-1.113-0.19-1.58-0.573
			c-0.466-0.386-0.697-0.943-0.697-1.681c0-0.733,0.231-1.295,0.697-1.678c0.467-0.385,0.991-0.576,1.58-0.576
			c0.586,0,1.112,0.191,1.577,0.576C652.09,524.261,652.323,524.821,652.323,525.556z"/>
		<path d="M666.135,518.968c0,2.857-0.543,5.049-1.629,6.574c-1.086,1.527-2.584,2.291-4.494,2.291s-3.408-0.764-4.494-2.291
			c-1.086-1.525-1.629-3.717-1.629-6.574c0-1.422,0.145-2.678,0.43-3.771s0.697-2.019,1.236-2.771
			c0.539-0.75,1.184-1.319,1.936-1.713c0.75-0.393,1.592-0.588,2.521-0.588c1.91,0,3.408,0.762,4.494,2.289
			S666.135,516.126,666.135,518.968z M662.411,518.968c0-0.85-0.041-1.621-0.123-2.313c-0.081-0.693-0.213-1.295-0.393-1.801
			c-0.182-0.509-0.426-0.896-0.734-1.179c-0.311-0.274-0.692-0.416-1.149-0.416s-0.838,0.142-1.14,0.416
			c-0.305,0.279-0.549,0.67-0.733,1.179c-0.188,0.506-0.322,1.104-0.404,1.801c-0.082,0.69-0.123,1.465-0.123,2.313
			c0,0.851,0.041,1.625,0.123,2.326s0.217,1.307,0.404,1.813c0.187,0.506,0.432,0.896,0.733,1.176
			c0.302,0.274,0.683,0.416,1.14,0.416s0.842-0.14,1.149-0.416c0.312-0.277,0.556-0.67,0.734-1.176
			c0.178-0.509,0.311-1.109,0.393-1.813C662.37,520.593,662.411,519.815,662.411,518.968z"/>
	</g>
	<path id="path1334" fill="#010101" d="M648.393,412.491l-5.318,9.215h3.793v47.104l-9.69-9.176
		c-0.623-0.776-1.063-1.799-1.084-2.854c0-4.246,0-6.771-0.008-7.701c1.801-0.629,3.094-2.322,3.094-4.33
		c0-2.545-2.064-4.609-4.607-4.609c-2.545,0-4.608,2.064-4.608,4.609c0,2.008,1.293,3.701,3.086,4.33v7.611
		c0,2.063,1.131,4.227,2.459,5.6c-0.039-0.039-0.078-0.078,0,0.004c0.035,0.025,10.281,9.732,10.281,9.732
		c0.622,0.778,1.063,1.799,1.088,2.848v5.328c-3.517,0.703-6.177,3.813-6.177,7.541c0,4.254,3.447,7.701,7.699,7.701
		c4.25,0,7.695-3.447,7.695-7.701c0-3.73-2.65-6.838-6.178-7.541v-5.238c0-0.012,0.004-0.024,0-0.039v-11.58
		c0.026-1.049,0.461-2.065,1.086-2.844c0,0,10.243-9.697,10.282-9.729c0.082-0.076,0.039-0.039,0,0
		c1.324-1.378,2.457-3.541,2.457-5.605l-0.002-7.334h3.092v-9.221h-9.219v9.221h3.084c0,0,0,1.932,0,7.424
		c-0.022,1.051-0.465,2.072-1.088,2.855l-9.688,9.172v-35.584h3.803L648.393,412.491z"/>
</g>
</svg>
