<?xml version="1.0" encoding="utf-8"?>
<!-- Generator: Adobe Illustrator 16.0.0, SVG Export Plug-In . SVG Version: 6.00 Build 0)  -->
<!DOCTYPE svg PUBLIC "-//W3C//DTD SVG 1.1//EN" "http://www.w3.org/Graphics/SVG/1.1/DTD/svg11.dtd">
<svg version="1.1" id="Layer_1" xmlns="http://www.w3.org/2000/svg" xmlns:xlink="http://www.w3.org/1999/xlink" x="0px" y="0px"
	 width="200.306px" height="200px" viewBox="-141.604 64.193 200.306 200" enable-background="new -141.604 64.193 200.306 200"
	 xml:space="preserve">
<rect x="-141.604" y="64.193" fill="#996699" width="200.306" height="200"/>
<g>
	<g>
		<rect x="-73.81" y="137.594" fill="none" width="64.713" height="53.198"/>
		<path fill="#FFFFFF" d="M-61.396,159.393c0.112-1.367,0.348-2.791,0.702-4.271c0.355-1.479,0.791-2.931,1.306-4.354
			c0.517-1.424,1.093-2.769,1.729-4.031s1.283-2.355,1.938-3.273h-8.456v-3.565h13.625v3.034c-0.6,0.654-1.26,1.563-1.979,2.725
			c-0.721,1.161-1.405,2.478-2.051,3.947c-0.646,1.47-1.208,3.048-1.688,4.731c-0.478,1.687-0.771,3.371-0.885,5.059
			L-61.396,159.393L-61.396,159.393z"/>
		<path fill="#FFFFFF" d="M-34.429,149.617c0,3.277-0.623,5.792-1.866,7.542c-1.246,1.751-2.963,2.626-5.155,2.626
			c-2.191,0-3.91-0.875-5.155-2.626c-1.246-1.751-1.868-4.265-1.868-7.542c0-1.629,0.164-3.071,0.492-4.326
			c0.328-1.254,0.801-2.313,1.418-3.174c0.618-0.861,1.358-1.517,2.219-1.967c0.861-0.449,1.826-0.674,2.896-0.674
			c2.19,0,3.909,0.875,5.155,2.626C-35.051,143.854-34.429,146.358-34.429,149.617z M-38.699,149.617
			c0-0.974-0.047-1.857-0.14-2.655c-0.096-0.796-0.244-1.482-0.45-2.063c-0.206-0.58-0.487-1.03-0.843-1.35
			c-0.356-0.316-0.798-0.478-1.32-0.478c-0.524,0-0.96,0.159-1.306,0.478c-0.349,0.318-0.63,0.77-0.845,1.35
			c-0.215,0.581-0.37,1.269-0.463,2.063c-0.094,0.797-0.141,1.683-0.141,2.655c0,0.975,0.046,1.864,0.141,2.668
			c0.093,0.807,0.248,1.499,0.463,2.079c0.215,0.581,0.496,1.03,0.845,1.348c0.346,0.319,0.78,0.479,1.306,0.479
			c0.522,0,0.964-0.159,1.32-0.479c0.354-0.316,0.637-0.768,0.843-1.348s0.354-1.272,0.45-2.079
			C-38.746,151.481-38.699,150.591-38.699,149.617z"/>
		<path fill="#FFFFFF" d="M-18.473,149.617c0,3.277-0.623,5.792-1.866,7.542c-1.246,1.751-2.965,2.626-5.155,2.626
			c-2.191,0-3.91-0.875-5.155-2.626c-1.246-1.751-1.868-4.265-1.868-7.542c0-1.629,0.164-3.071,0.492-4.326
			c0.328-1.254,0.801-2.313,1.418-3.174c0.618-0.861,1.358-1.517,2.219-1.967c0.861-0.449,1.826-0.674,2.896-0.674
			c2.189,0,3.909,0.875,5.155,2.626C-19.095,143.854-18.473,146.358-18.473,149.617z M-22.743,149.617
			c0-0.974-0.047-1.857-0.14-2.655c-0.096-0.796-0.244-1.482-0.45-2.063c-0.206-0.58-0.487-1.03-0.843-1.35
			c-0.356-0.316-0.798-0.478-1.32-0.478c-0.524,0-0.96,0.159-1.306,0.478c-0.349,0.318-0.63,0.77-0.845,1.35
			c-0.215,0.581-0.37,1.269-0.463,2.063c-0.094,0.797-0.141,1.683-0.141,2.655c0,0.975,0.046,1.864,0.141,2.668
			c0.093,0.807,0.248,1.499,0.463,2.079c0.215,0.581,0.496,1.03,0.845,1.348c0.346,0.319,0.78,0.479,1.306,0.479
			c0.522,0,0.964-0.159,1.32-0.479c0.354-0.316,0.637-0.768,0.843-1.348s0.354-1.272,0.45-2.079
			C-22.79,151.481-22.743,150.591-22.743,149.617z"/>
		<path fill="#FFFFFF" d="M-63.967,168.018c0.338,0.617,0.727,1.381,1.168,2.29c0.439,0.908,0.899,1.892,1.38,2.948
			c0.479,1.06,0.953,2.142,1.422,3.245c0.469,1.105,0.911,2.146,1.324,3.118c0.411-0.974,0.854-2.013,1.322-3.118
			c0.471-1.104,0.943-2.187,1.422-3.245c0.479-1.058,0.939-2.04,1.382-2.948c0.439-0.908,0.831-1.672,1.169-2.29h3.987
			c0.188,1.292,0.36,2.737,0.521,4.34c0.159,1.601,0.299,3.268,0.421,5c0.122,1.73,0.234,3.469,0.337,5.211
			c0.104,1.742,0.191,3.38,0.267,4.916h-4.27c-0.056-1.893-0.131-3.951-0.225-6.18c-0.096-2.229-0.234-4.478-0.423-6.742
			c-0.338,0.787-0.714,1.658-1.127,2.612c-0.411,0.954-0.82,1.909-1.226,2.864s-0.794,1.868-1.169,2.739
			c-0.376,0.871-0.695,1.615-0.958,2.233h-3.063c-0.264-0.618-0.583-1.362-0.958-2.233s-0.766-1.784-1.17-2.739
			c-0.402-0.955-0.813-1.91-1.225-2.864c-0.414-0.954-0.79-1.825-1.127-2.612c-0.188,2.266-0.328,4.514-0.421,6.742
			c-0.094,2.229-0.168,4.288-0.227,6.18h-4.27c0.075-1.536,0.164-3.174,0.267-4.916c0.104-1.742,0.217-3.479,0.337-5.211
			c0.122-1.732,0.264-3.399,0.423-5c0.157-1.604,0.332-3.048,0.52-4.34H-63.967z"/>
		<path fill="#FFFFFF" d="M-32.195,168.018h4.382v19.468h-4.382v-8.259h-7.36v8.259h-4.382v-19.468h4.382v7.442h7.36V168.018z"/>
		<path fill="#FFFFFF" d="M-12.503,175.518c-0.338,0.375-0.793,0.881-1.365,1.517c-0.572,0.637-1.188,1.339-1.844,2.107
			c-0.657,0.768-1.318,1.571-1.985,2.416c-0.666,0.843-1.271,1.655-1.815,2.442h7.15v3.483h-12.22v-2.473
			c0.393-0.675,0.866-1.399,1.418-2.178c0.552-0.775,1.133-1.559,1.742-2.346c0.606-0.786,1.212-1.549,1.812-2.289
			c0.599-0.74,1.152-1.409,1.657-2.009h-6.292v-3.483h11.743L-12.503,175.518L-12.503,175.518z"/>
	</g>
	
		<rect x="-91.528" y="113.466" fill="none" stroke="#FFFFFF" stroke-width="11.7772" stroke-miterlimit="10" width="100.152" height="100.151"/>
	<g>
		
			<line fill="none" stroke="#FFFFFF" stroke-width="11.7772" stroke-miterlimit="10" x1="3.904" y1="140.783" x2="30.242" y2="140.783"/>
		
			<line fill="none" stroke="#FFFFFF" stroke-width="11.7772" stroke-miterlimit="10" x1="3.904" y1="164.192" x2="30.242" y2="164.192"/>
		
			<line fill="none" stroke="#FFFFFF" stroke-width="11.7772" stroke-miterlimit="10" x1="3.904" y1="187.602" x2="30.242" y2="187.602"/>
	</g>
	<g>
		
			<line fill="none" stroke="#FFFFFF" stroke-width="11.7772" stroke-miterlimit="10" x1="-113.146" y1="140.783" x2="-86.808" y2="140.783"/>
		
			<line fill="none" stroke="#FFFFFF" stroke-width="11.7772" stroke-miterlimit="10" x1="-113.146" y1="164.192" x2="-86.808" y2="164.192"/>
		
			<line fill="none" stroke="#FFFFFF" stroke-width="11.7772" stroke-miterlimit="10" x1="-113.146" y1="187.602" x2="-86.808" y2="187.602"/>
	</g>
	<g>
		
			<line fill="none" stroke="#FFFFFF" stroke-width="11.7772" stroke-miterlimit="10" x1="-18.045" y1="209.548" x2="-18.045" y2="235.885"/>
		
			<line fill="none" stroke="#FFFFFF" stroke-width="11.7772" stroke-miterlimit="10" x1="-41.452" y1="209.548" x2="-41.452" y2="235.885"/>
		
			<line fill="none" stroke="#FFFFFF" stroke-width="11.7772" stroke-miterlimit="10" x1="-64.864" y1="209.548" x2="-64.864" y2="235.885"/>
	</g>
	<g>
		
			<line fill="none" stroke="#FFFFFF" stroke-width="11.7772" stroke-miterlimit="10" x1="-18.045" y1="92.5" x2="-18.045" y2="118.834"/>
		
			<line fill="none" stroke="#FFFFFF" stroke-width="11.7772" stroke-miterlimit="10" x1="-41.452" y1="92.5" x2="-41.452" y2="118.834"/>
		
			<line fill="none" stroke="#FFFFFF" stroke-width="11.7772" stroke-miterlimit="10" x1="-64.864" y1="92.5" x2="-64.864" y2="118.834"/>
	</g>
</g>
</svg>
