<?xml version="1.0" encoding="utf-8"?>
<!-- Generator: Adobe Illustrator 16.0.0, SVG Export Plug-In . SVG Version: 6.00 Build 0)  -->
<!DOCTYPE svg PUBLIC "-//W3C//DTD SVG 1.1//EN" "http://www.w3.org/Graphics/SVG/1.1/DTD/svg11.dtd">
<svg version="1.1" id="Layer_1" xmlns="http://www.w3.org/2000/svg" xmlns:xlink="http://www.w3.org/1999/xlink" x="0px" y="0px"
	 width="200.305px" height="200px" viewBox="85.7 65.192 200.305 200" enable-background="new 85.7 65.192 200.305 200"
	 xml:space="preserve">
<rect x="85.7" y="65.192" fill="#3399CC" width="200.305" height="200"/>
<g>
	<g>
		<rect x="165.51" y="140.188" fill="none" width="40.684" height="50.012"/>
		<path fill="#FFFFFF" d="M192.761,156.558c0,0.844-0.146,1.616-0.437,2.319s-0.728,1.317-1.308,1.842
			c-0.58,0.525-1.307,0.935-2.178,1.226c-0.871,0.289-1.877,0.436-3.021,0.436c-1.311,0-2.399-0.183-3.271-0.548
			c-0.871-0.366-1.573-0.819-2.107-1.365c-0.532-0.544-0.913-1.14-1.138-1.786s-0.337-1.242-0.337-1.785
			c0-0.563,0.075-1.078,0.225-1.549c0.15-0.469,0.355-0.896,0.618-1.279c0.262-0.383,0.559-0.735,0.885-1.056
			c0.328-0.317,0.681-0.618,1.055-0.899c-0.807-0.653-1.4-1.299-1.784-1.937c-0.384-0.636-0.576-1.448-0.576-2.439
			c0-0.748,0.154-1.468,0.463-2.16c0.311-0.692,0.745-1.295,1.308-1.809c0.562-0.516,1.239-0.927,2.035-1.234
			c0.798-0.308,1.683-0.463,2.655-0.463c1.143,0,2.12,0.164,2.938,0.491c0.813,0.327,1.481,0.743,2.009,1.249
			c0.521,0.505,0.9,1.07,1.137,1.696c0.233,0.626,0.353,1.248,0.353,1.865c0,0.898-0.237,1.735-0.716,2.511
			c-0.479,0.776-1.073,1.39-1.784,1.837c1.067,0.694,1.829,1.422,2.288,2.182C192.531,154.66,192.761,155.544,192.761,156.558z
			 M183.042,156.728c0,0.227,0.051,0.476,0.152,0.748c0.104,0.271,0.269,0.521,0.492,0.744c0.227,0.227,0.516,0.413,0.871,0.563
			c0.354,0.149,0.787,0.226,1.292,0.226c0.975,0,1.688-0.232,2.136-0.703c0.449-0.47,0.675-0.994,0.675-1.576
			c0-0.434-0.099-0.817-0.295-1.155c-0.196-0.339-0.464-0.634-0.802-0.888c-0.338-0.252-0.735-0.479-1.192-0.677
			c-0.459-0.196-0.95-0.38-1.477-0.549c-0.523,0.396-0.965,0.854-1.318,1.38C183.219,155.365,183.042,155.994,183.042,156.728z
			 M188.238,147.484c0-0.206-0.041-0.425-0.127-0.658c-0.084-0.233-0.225-0.453-0.42-0.658c-0.196-0.206-0.444-0.378-0.746-0.519
			c-0.299-0.141-0.664-0.21-1.095-0.21c-0.412,0-0.769,0.064-1.066,0.195c-0.301,0.132-0.549,0.305-0.745,0.52
			c-0.195,0.215-0.343,0.443-0.436,0.687c-0.094,0.243-0.141,0.477-0.141,0.7c0,0.598,0.22,1.158,0.659,1.681
			s1.193,0.972,2.263,1.345c0.6-0.374,1.057-0.803,1.377-1.289C188.08,148.792,188.238,148.194,188.238,147.484z"/>
		<path fill="#FFFFFF" d="M178.295,173.981c-2.042,0-3.519,0.565-4.425,1.699c-0.909,1.133-1.362,2.684-1.362,4.648
			c0,0.955,0.112,1.822,0.337,2.599c0.225,0.777,0.563,1.447,1.011,2.011c0.45,0.562,1.014,0.996,1.688,1.306
			c0.674,0.309,1.461,0.463,2.358,0.463c0.487,0,0.903-0.009,1.25-0.028c0.349-0.019,0.65-0.056,0.913-0.111v-6.771h4.382v9.637
			c-0.522,0.205-1.365,0.426-2.526,0.659c-1.161,0.234-2.594,0.353-4.298,0.353c-1.461,0-2.786-0.227-3.977-0.674
			c-1.188-0.449-2.205-1.104-3.048-1.968c-0.843-0.86-1.494-1.919-1.953-3.174c-0.459-1.254-0.688-2.688-0.688-4.298
			c0-1.629,0.252-3.071,0.758-4.326c0.506-1.254,1.198-2.316,2.079-3.188c0.88-0.871,1.915-1.531,3.104-1.98
			c1.189-0.449,2.458-0.674,3.808-0.674c0.917,0,1.746,0.063,2.484,0.184c0.74,0.121,1.376,0.262,1.91,0.422
			c0.534,0.157,0.975,0.321,1.32,0.489c0.346,0.169,0.594,0.302,0.744,0.396l-1.265,3.511c-0.6-0.317-1.288-0.595-2.063-0.829
			C180.06,174.101,179.212,173.981,178.295,173.981z"/>
		<path fill="#FFFFFF" d="M195.009,190.331c-1.067,0-2.13-0.033-3.188-0.1c-1.058-0.064-2.157-0.221-3.301-0.463v-18.877
			c0.899-0.168,1.883-0.297,2.95-0.381c1.066-0.084,2.06-0.126,2.978-0.126c1.236,0,2.374,0.091,3.413,0.269s1.936,0.48,2.685,0.912
			s1.335,0.998,1.756,1.701c0.422,0.7,0.632,1.567,0.632,2.599c0,1.555-0.749,2.78-2.247,3.68c1.236,0.47,2.079,1.104,2.528,1.911
			c0.448,0.806,0.674,1.713,0.674,2.725c0,2.043-0.744,3.578-2.233,4.607C200.164,189.815,197.949,190.331,195.009,190.331z
			 M192.79,178.251h2.136c1.349,0,2.313-0.173,2.894-0.52c0.58-0.349,0.871-0.903,0.871-1.672c0-0.787-0.3-1.34-0.897-1.658
			c-0.602-0.317-1.479-0.479-2.643-0.479c-0.375,0-0.776,0.005-1.208,0.016c-0.431,0.009-0.813,0.031-1.149,0.068L192.79,178.251
			L192.79,178.251z M192.79,181.594v5.029c0.317,0.038,0.664,0.065,1.039,0.084c0.374,0.021,0.787,0.028,1.235,0.028
			c1.313,0,2.369-0.188,3.174-0.563c0.808-0.375,1.208-1.065,1.208-2.079c0-0.898-0.337-1.541-1.011-1.924
			c-0.675-0.384-1.64-0.576-2.894-0.576L192.79,181.594L192.79,181.594z"/>
	</g>
	<g>
		<path fill="none" stroke="#FFFFFF" stroke-width="11.7772" stroke-miterlimit="10" d="M231.907,112.558v92.272
			c0,7.179-5.901,12.999-13.187,12.999h-65.74c-7.281,0-13.185-5.82-13.185-12.999v-79.275c13.185-12.998,0,0,13.185-12.998"/>
		
			<line fill="none" stroke="#FFFFFF" stroke-width="11.777" stroke-linecap="round" stroke-miterlimit="10" x1="231.907" y1="112.558" x2="152.981" y2="112.558"/>
	</g>
</g>
</svg>
