<?xml version="1.0" encoding="utf-8"?>
<!-- Generator: Adobe Illustrator 16.0.0, SVG Export Plug-In . SVG Version: 6.00 Build 0)  -->
<!DOCTYPE svg PUBLIC "-//W3C//DTD SVG 1.1//EN" "http://www.w3.org/Graphics/SVG/1.1/DTD/svg11.dtd">
<svg version="1.1" id="Layer_1" xmlns="http://www.w3.org/2000/svg" xmlns:xlink="http://www.w3.org/1999/xlink" x="0px" y="0px"
	 width="200px" height="200px" viewBox="550.044 64.192 200 200" enable-background="new 550.044 64.192 200 200"
	 xml:space="preserve">
<rect x="550.044" y="64.192" fill="#333333" width="200" height="200"/>
<g>
	<g>
		<rect x="608.853" y="164.692" fill="none" width="82.386" height="36.951"/>
		<path fill="#FFFFFF" d="M622.664,167.469c3.851,0,6.798,0.685,8.846,2.054c2.047,1.369,3.068,3.496,3.068,6.383
			c0,1.802-0.413,3.263-1.237,4.385c-0.827,1.122-2.019,2.004-3.57,2.646c0.519,0.642,1.062,1.375,1.628,2.201
			c0.567,0.827,1.129,1.689,1.685,2.59c0.557,0.901,1.093,1.838,1.609,2.813c0.518,0.976,0.999,1.931,1.442,2.867h-6.453
			c-0.472-0.839-0.946-1.688-1.432-2.554c-0.481-0.862-0.979-1.701-1.483-2.516c-0.506-0.814-1.01-1.585-1.505-2.313
			c-0.495-0.729-0.99-1.389-1.484-1.979h-2.85v9.36h-5.771v-25.271c1.258-0.246,2.561-0.419,3.902-0.519
			C620.402,167.519,621.604,167.469,622.664,167.469z M622.997,172.39c-0.419,0-0.795,0.014-1.128,0.037
			c-0.333,0.024-0.646,0.051-0.941,0.074v6.956h1.628c2.17,0,3.725-0.271,4.662-0.813s1.403-1.468,1.403-2.775
			c0-1.258-0.475-2.151-1.424-2.684C626.247,172.653,624.849,172.39,622.997,172.39z"/>
		<path fill="#FFFFFF" d="M650.859,193.924c-4.169,0-7.346-1.159-9.528-3.479c-2.183-2.316-3.272-5.609-3.272-9.879
			c0-2.121,0.333-4.015,0.999-5.68c0.666-1.664,1.579-3.07,2.738-4.218c1.157-1.147,2.539-2.019,4.146-2.608
			c1.604-0.593,3.342-0.889,5.217-0.889c1.085,0,2.07,0.08,2.96,0.239c0.89,0.161,1.665,0.347,2.331,0.556
			c0.666,0.21,1.223,0.426,1.665,0.646c0.442,0.223,0.766,0.396,0.962,0.519l-1.665,4.662c-0.79-0.419-1.709-0.776-2.757-1.073
			c-1.05-0.296-2.238-0.443-3.57-0.443c-0.888,0-1.758,0.147-2.606,0.443c-0.854,0.297-1.604,0.771-2.257,1.426
			c-0.653,0.653-1.181,1.498-1.573,2.533c-0.396,1.036-0.592,2.295-0.592,3.774c0,1.185,0.13,2.288,0.39,3.312
			c0.259,1.024,0.678,1.906,1.258,2.646c0.579,0.74,1.338,1.326,2.274,1.759c0.938,0.433,2.072,0.646,3.404,0.646
			c0.838,0,1.591-0.049,2.257-0.146c0.666-0.1,1.258-0.217,1.774-0.354c0.52-0.135,0.976-0.289,1.369-0.461
			c0.395-0.172,0.752-0.334,1.072-0.48l1.592,4.625c-0.813,0.493-1.961,0.938-3.439,1.332
			C654.522,193.726,652.808,193.924,650.859,193.924z"/>
		<path fill="#FFFFFF" d="M681.381,193.405c-0.285-0.891-0.594-1.807-0.92-2.745c-0.329-0.938-0.656-1.874-0.981-2.806h-10.015
			c-0.323,0.937-0.647,1.873-0.976,2.813c-0.327,0.938-0.628,1.853-0.908,2.736h-5.992c0.965-2.763,1.88-5.314,2.745-7.658
			c0.865-2.345,1.714-4.552,2.541-6.623c0.829-2.072,1.646-4.039,2.449-5.901c0.807-1.861,1.642-3.682,2.506-5.457h5.474
			c0.842,1.775,1.672,3.596,2.489,5.457c0.815,1.863,1.643,3.83,2.473,5.901s1.681,4.278,2.547,6.623
			c0.867,2.344,1.783,4.896,2.75,7.658L681.381,193.405L681.381,193.405z M674.446,173.573c-0.129,0.373-0.315,0.879-0.563,1.521
			s-0.53,1.382-0.849,2.222c-0.315,0.841-0.672,1.767-1.063,2.775c-0.394,1.01-0.789,2.068-1.192,3.178h7.332
			c-0.394-1.111-0.771-2.175-1.141-3.188c-0.368-1.014-0.719-1.939-1.05-2.78c-0.33-0.84-0.62-1.579-0.87-2.221
			C674.801,174.438,674.6,173.938,674.446,173.573z"/>
	</g>
	<path fill="none" stroke="#FFFFFF" stroke-width="7.4983" stroke-miterlimit="10" d="M704.067,221.507
		c0,5.039-4.646,9.122-10.386,9.122h-87.274c-5.732,0-10.385-4.083-10.385-9.122v-76.674c0-5.038,4.649-9.122,10.385-9.122h87.274
		c5.736,0,10.386,4.084,10.386,9.122V221.507z"/>
	<g>
		
			<line fill="none" stroke="#FFFFFF" stroke-width="8" stroke-miterlimit="10" x1="648.132" y1="133.929" x2="611.957" y2="97.756"/>
		
			<line fill="none" stroke="#FFFFFF" stroke-width="8" stroke-miterlimit="10" x1="688.132" y1="97.756" x2="651.957" y2="133.929"/>
	</g>
</g>
</svg>
