<?xml version="1.0" encoding="utf-8"?>
<!-- Generator: Adobe Illustrator 16.0.0, SVG Export Plug-In . SVG Version: 6.00 Build 0)  -->
<!DOCTYPE svg PUBLIC "-//W3C//DTD SVG 1.1//EN" "http://www.w3.org/Graphics/SVG/1.1/DTD/svg11.dtd">
<svg version="1.1" id="Layer_1" xmlns="http://www.w3.org/2000/svg" xmlns:xlink="http://www.w3.org/1999/xlink" x="0px" y="0px"
	 width="332.307px" height="400px" viewBox="0 0 332.307 400" enable-background="new 0 0 332.307 400" xml:space="preserve">
<g>
	<polygon fill="#EF3B68" points="332.307,300 166.154,400 0,300 0.002,100 166.154,0 332.307,100 	"/>
	<g>
		<g>
			<path fill="#FFFFFF" d="M193.006,180.24c-4.891,4.35-11.479,12.078-17.969,11.363c0,0,6.932,2.254,9.115,6.496
				c-0.469-1.051-1.514-3.789-0.668-5.641c0,0,3.627,2.826,10.621,0.605c6.992-2.223,6.199-11.332,6.199-11.332
				s1.406-0.754,1.988,4.092c0,0,1.703-5.203,0.502-8.564S197.895,175.887,193.006,180.24z"/>
			<path fill="#FFFFFF" d="M186.235,187.846c5.914,2.473,6.535-3.555,6.535-3.555l1.393-1.842c0.541,10.297-8.4,7.35-8.4,7.35
				L186.235,187.846z"/>
			<path fill="#FFFFFF" d="M196.555,189.244c-3.078,5.182-11.715,3.184-12.801,1.883l0.727-0.668c0,0,3.996,3.02,8.666-0.141
				c4.674-3.162,2.385-8.604,2.385-8.604l1.336-0.57C196.868,181.145,199.344,184.027,196.555,189.244z"/>
		</g>
		<path fill="#FFFFFF" d="M184.153,198.1c0.119,0.271,0.203,0.434,0.203,0.434C184.293,198.387,184.223,198.242,184.153,198.1z"/>
		<path fill="#FFFFFF" d="M175.301,188.908c7.596,0.203,12.242-7.715,12.242-7.715c-3.445,2.426-7.598,4.207-11.541,3.01
			s-5.609-3.797-5.609-3.797v0.146C170.393,180.553,167.706,188.703,175.301,188.908z"/>
		<path fill="#FFFFFF" d="M172.499,198.842c1.838,0.027,2.918,1.344,6.396,4.322c3.477,2.98,9.963,2.805,9.963,2.805
			c-5.406-0.992-7.568-5.169-10.521-6.604C175.389,197.936,172.499,198.842,172.499,198.842z"/>
		<path fill="#FFFFFF" d="M186.731,226.398c0.883-4.785-1.732-6.875-6.539-4.609s-11.395,8.117-11.395,8.117
			c2.615,4.285,0.977,7.492,0.977,7.492c1.813-0.43,2.742-2.449,2.742-2.449c9.383,2.182,9.105-10.918,9.939-10.688
			c3.764,1.439-0.371,10.918-0.371,10.918S185.848,231.184,186.731,226.398z"/>
		<path fill="#FFFFFF" d="M171.858,217.998c0,0,12.934-5.377,16.752,5.844c3.816,11.217-4.129,15.582-4.129,15.582
			s8.258-2.807,11.453-10.207c3.193-7.402,11.219-8.025,7.086-16.051c0,0-4.984,12.469-22.047-4.129
			C180.973,209.037,174.35,210.129,171.858,217.998z"/>
		<path fill="#FFFFFF" d="M166.145,201.029c1.668-4.555,3.02-5.906,7.577-7.574c-4.557-1.668-5.908-3.02-7.577-7.574
			c-1.666,4.555-3.02,5.906-7.574,7.574C163.125,195.123,164.479,196.475,166.145,201.029z"/>
		<path fill="#FFFFFF" d="M179.479,205.531c0,0-6.545-6.699-9.504,6.078C169.975,211.609,171.766,205.297,179.479,205.531z"/>
		<g>
			<path fill="#FFFFFF" d="M243.407,201.734c2.629,0,4.48,2.16,4.48,2.16c-1.336-6.408-4.303-12.531-7.258-17.438
				c3.813-1.997,5.676-8.832,4.207-16.342c-1.523-7.773-6.082-13.529-10.512-13.57c0.051-4.239-0.072-7.148-0.072-7.148
				c1.869-0.313,3.545,0.975,3.545,0.975c-4.207-21.389-28.283-34.711-28.283-34.711c1.17-0.818,2.338-0.643,2.338-0.643
				c-13.732-12.505-28.75-11.131-28.75-11.131c0.205-1.988,3.74-3.887,3.74-3.887c-12.939,1.236-18.137,3.874-19.904,5.09
				c-0.479-0.416-0.752-0.658-0.752-0.658s-0.283,0.252-0.781,0.682c-1.732-1.202-6.914-3.869-19.939-5.113
				c0,0,3.535,1.898,3.74,3.887c0,0-15.018-1.374-28.75,11.131c0,0,1.168-0.176,2.338,0.643c0,0-24.076,13.322-28.283,34.711
				c0,0,1.676-1.287,3.545-0.975c0,0-0.123,2.909-0.074,7.148c-4.43,0.041-8.986,5.797-10.51,13.57
				c-1.471,7.51,0.395,14.344,4.205,16.342c-2.953,4.906-5.92,11.029-7.256,17.438c0,0,1.852-2.16,4.48-2.16
				c0,0-9.818,12.914-6.193,31.494c0,0,1.17-3.33,3.096-3.738c0,0,0.936,17.939,11.279,25.068c0,0-0.469-1.969-0.119-3.488
				c0,0,20.104,14.922,20.805,20.297c0,0,0.934-2.416,0.311-5.063c0,0,13.4,16.906,12.389,22.672c0,0,2.055-1.316,2.756-4.033
				c0,0,3.682,5.404,9.934,8.619c0,0,0.469-1.898-0.086-3.508c0,0,6.338,5.992,11.715,6.984c0,0-0.088-1.957-1.08-2.98
				c0,0,11.785,3.684,12.449,5.941c0.661-2.258,12.448-5.941,12.448-5.941c-0.992,1.023-1.08,2.98-1.08,2.98
				c5.375-0.992,11.717-6.984,11.717-6.984c-0.555,1.609-0.088,3.508-0.088,3.508c6.252-3.215,9.936-8.619,9.936-8.619
				c0.699,2.717,2.754,4.033,2.754,4.033c-1.012-5.766,12.387-22.672,12.387-22.672c-0.623,2.646,0.313,5.063,0.313,5.063
				c0.701-5.375,20.803-20.297,20.803-20.297c0.35,1.52-0.117,3.488-0.117,3.488c10.344-7.129,11.279-25.068,11.279-25.068
				c1.926,0.408,3.098,3.738,3.098,3.738C253.225,214.648,243.407,201.734,243.407,201.734z"/>
			<path fill="#FFFFFF" d="M233.532,170.705c-0.016,0.004-0.031,0.008-0.043,0.012c0.441-3.732,0.664-7.539,0.768-10.885
				c3.32,1.707,6.205,5.979,7.26,11.363c1.029,5.254,0.045,10.188-2.266,13.053c-3.426-5.301-6.48-8.713-6.48-8.713
				s1.17-3.721,4.441-3.076C237.211,172.459,235.692,170.296,233.532,170.705z"/>
			<path fill="#FFFFFF" d="M164.457,110.259c1.107,0.439,1.697,0.767,1.697,0.767s0.606-0.336,1.745-0.787
				c3.443,4.188,11.625,10.145,22.475,15.123c13.771,6.318,19.549,13.525,19.549,13.525c-17.082-7.947-32.777-5.826-32.777-5.826
				c20.336,1.631,30.654,15.748,30.654,15.748c-9.824-8.342-27.76-5.084-27.76-5.084c10.793,1.053,12.852,7.158,12.852,7.158
				c-17.08,0.691-26.706,15.682-26.706,15.682s-9.625-14.99-26.705-15.682c0,0,2.057-6.105,12.852-7.158
				c0,0-17.938-3.258-27.76,5.084c0,0,10.318-14.117,30.656-15.748c0,0-15.699-2.121-32.777,5.826c0,0,5.773-7.207,19.547-13.525
				C152.83,120.391,161.004,114.443,164.457,110.259z"/>
			<path fill="#FFFFFF" d="M204.256,188.352c0,0-1.52,4.617-5.787,6.078c0,0,7.508,0.344,11.057-4.695
				c0.23,4.443-0.533,7.609-0.951,8.967c-9.928,9.191-21.461,3.248-21.461,3.248c5.709,5.938,12.816,7.266,19.246,3.23
				c3.043-1.906,4.635-4.584,5.469-6.873c0.047,2.393-0.863,3.838-0.863,3.838c6.906,5.633,6.113,15.697-0.873,25.164
				c-6.986,9.465-15.082,7.813-15.082,7.813c2.143,6.986,0.662,11.242,0.662,11.242c-1.457,3.396-3.238,6.094-5.221,8.238
				c-0.232,0.215-0.506,0.457-0.818,0.725c0.023-0.014,0.043-0.029,0.066-0.047c-0.035,0.029-0.074,0.057-0.115,0.088
				c0.016-0.012,0.033-0.025,0.049-0.041c-3.203,2.168-10.094,4.326-23.555,4.326c-13.057,0-19.932-2.029-23.256-4.129
				c-2.344-2.277-4.443-5.258-6.117-9.16c0,0-1.482-4.256,0.66-11.242c0,0-8.096,1.652-15.08-7.813
				c-6.986-9.467-7.781-19.531-0.873-25.164c0,0-0.867-1.374-0.869-3.662c0.852,2.248,2.439,4.838,5.404,6.697
				c6.43,4.035,13.537,2.707,19.246-3.23c0,0-11.459,5.902-21.365-3.164c-0.41-1.299-1.203-4.469-0.982-8.959
				c3.574,4.941,10.99,4.604,10.99,4.604c-4.266-1.461-5.785-6.078-5.785-6.078c-0.35,1.111,0.293,2.104,0.293,2.104
				c-3.219-1.451-4.533-3.365-4.967-5.107c0.496-2.668,1.367-5.631,2.795-8.818c6.033-13.447,17.254-13.947,40.016,2.873
				c20.383-16.645,33.983-16.32,40.016-2.873c1.4,3.123,2.266,6.031,2.766,8.656c-0.395,1.785-1.688,3.773-5.008,5.27
				C203.961,190.455,204.606,189.463,204.256,188.352z"/>
			<path fill="#FFFFFF" d="M90.791,171.195c1.053-5.385,3.938-9.656,7.26-11.363c0.104,3.346,0.326,7.152,0.768,10.885
				c-0.014-0.004-0.027-0.008-0.043-0.012c-2.162-0.409-3.682,1.754-3.682,1.754c3.273-0.645,4.443,3.076,4.443,3.076
				s-3.057,3.412-6.48,8.713C90.746,181.383,89.762,176.447,90.791,171.195z"/>
			<path fill="#FFFFFF" d="M125.324,251.813c-6-6.156-4.596-19.012-4.596-19.012c-3.896,5.141-2.807,15.037-2.807,15.037
				c-11.375-12.309-10.283-25.945-10.283-25.945c-5.221,9.273-2.416,21.971-2.416,21.971c-9.506-13.633-5.277-29.393-5.277-29.393
				c-5.902,6.486-6.43,19.578-6.43,19.578c-3.154-6.311-0.584-12.738-0.584-12.738c-2.979,1.576-3.564,6.893-3.564,6.893
				c-7.479-17.527,10.051-36.695,10.051-36.695l-8.297,4.986c4.363-10.285,11.688-17.492,11.688-17.492l3.389,5.143
				c-6.896-31.906-1.229-40.027-1.229-40.027c-1.986-0.176-3.914,1.344-3.914,1.344c7.83-22.088,36.637-31.027,36.637-31.027
				c-3.037-1.754-8.16-1.15-8.16-1.15c13.779-6.764,24.891-5.811,31.125-4.238c-3.025,2.404-6.824,5.232-10.168,7.137
				c-6.879,3.914-30.736,14.38-35.871,29.781c0,0,3.783-4.212,9.512-4.245c0,0-5.365,5.298-4.904,14.972
				c0,0,6.779-6.943,16.207-7.783c0,0-3.355,3.31-3.307,6.172c0,0,14.4-3.488,27.857,10.172c-6.928-3.447-18.563-7.496-29.205-2.994
				c0,0,3.414-0.375,4.445,0.527c0,0-14.023,5.158-16.246,25.791c0,0-1.588-1.605-1.482-4.709c0,0-3.598,9.916-1.27,15.123
				c0,0-6.033,10.316-4.34,20.232c0,0,0.74-2.303,2.012-2.754c0,0-0.371,10.566,8.043,17.127c0,0-1.059-2.053-0.635-3.355
				c0,0,1.799,4.191,6.719,7.844C124.773,243.594,125.324,251.813,125.324,251.813z"/>
			<path fill="#FFFFFF" d="M137.244,275.264c3.039-3.975,0.078-8.727,0.078-8.727c-2.336,5.221-7.4,3.818-7.4,3.818
				c3.738-2.027,3.389-8.025,3.389-8.025c-5.096-0.301-4.867-18.537-4.693-23.82c1.266,0.881,2.717,1.719,4.383,2.445
				c0,0-2.248,12.229,12.645,27.553C144.695,273.98,137.244,275.264,137.244,275.264z"/>
			<path fill="#FFFFFF" d="M166.188,273.404c-8.453,0-19.906-2.203-26.783-19.529c0,0,6.297,11.668,26.783,11.668
				c20.489,0,26.786-11.668,26.786-11.668C186.092,271.201,174.641,273.404,166.188,273.404z"/>
			<path fill="#FFFFFF" d="M202.385,270.355c0,0-5.064,1.402-7.4-3.818c0,0-2.963,4.752,0.078,8.727c0,0-7.398-1.271-8.389-6.693
				c14.955-15.355,12.701-27.615,12.701-27.615c1.637-0.713,3.068-1.535,4.316-2.398c0.172,5.346,0.385,23.475-4.695,23.773
				C198.997,262.33,198.647,268.328,202.385,270.355z"/>
			<path fill="#FFFFFF" d="M242.938,228.203c0,0-0.582-5.316-3.563-6.893c0,0,2.57,6.428-0.586,12.738
				c0,0-0.525-13.092-6.426-19.578c0,0,4.227,15.76-5.279,29.393c0,0,2.805-12.697-2.416-21.971c0,0,1.09,13.637-10.285,25.945
				c0,0,1.09-9.896-2.805-15.037c0,0,1.402,12.855-4.596,19.012c0,0,0.549-8.184-2.678-13.695c4.957-3.66,6.766-7.879,6.766-7.879
				c0.422,1.303-0.633,3.355-0.633,3.355c8.412-6.561,8.043-17.127,8.043-17.127c1.27,0.451,2.008,2.754,2.008,2.754
				c1.695-9.916-4.338-20.232-4.338-20.232c2.326-5.207-1.27-15.123-1.27-15.123c0.107,3.104-1.482,4.709-1.482,4.709
				c-2.223-20.633-16.246-25.791-16.246-25.791c1.031-0.902,4.445-0.527,4.445-0.527c-10.34-4.373-21.617-0.676-28.602,2.697
				c13.301-13.312,27.25-9.875,27.25-9.875c0.049-2.862-3.309-6.172-3.309-6.172c9.43,0.84,16.209,7.783,16.209,7.783
				c0.461-9.674-4.904-14.972-4.904-14.972c5.727,0.033,9.512,4.245,9.512,4.245c-5.133-15.401-28.994-25.867-35.873-29.781
				c-3.346-1.908-7.154-4.742-10.182-7.148c6.244-1.567,17.332-2.496,31.076,4.25c0,0-5.125-0.604-8.162,1.15
				c0,0,28.809,8.939,36.639,31.027c0,0-1.928-1.52-3.914-1.344c0,0,5.666,8.121-1.229,40.027l3.391-5.143
				c0,0,7.324,7.207,11.686,17.492l-8.299-4.986C232.887,191.508,250.418,210.676,242.938,228.203z"/>
		</g>
		<path fill="#FFFFFF" d="M148.156,198.1c-0.074,0.143-0.141,0.287-0.203,0.434C147.953,198.533,148.035,198.371,148.156,198.1z"/>
		<g>
			<path fill="#FFFFFF" d="M148.156,198.1c2.182-4.242,9.113-6.496,9.113-6.496c-6.49,0.715-13.08-7.014-17.969-11.363
				c-4.889-4.354-8.59-6.342-9.791-2.98c-1.197,3.361,0.506,8.564,0.506,8.564c0.58-4.846,1.988-4.092,1.988-4.092
				s-0.797,9.109,6.197,11.332c6.994,2.221,10.621-0.605,10.621-0.605C149.666,194.311,148.623,197.049,148.156,198.1z"/>
			<path fill="#FFFFFF" d="M138.145,182.449l1.393,1.842c0,0,0.621,6.027,6.535,3.555l0.473,1.953
				C146.545,189.799,137.604,192.746,138.145,182.449z"/>
			<path fill="#FFFFFF" d="M135.754,189.244c-2.791-5.217-0.314-8.1-0.314-8.1l1.338,0.57c0,0-2.291,5.441,2.381,8.604
				c4.674,3.16,8.666,0.141,8.666,0.141l0.729,0.668C147.469,192.428,138.83,194.426,135.754,189.244z"/>
		</g>
		<path fill="#FFFFFF" d="M157.004,188.908c7.6-0.205,4.908-8.355,4.908-8.355v-0.146c0,0-1.664,2.6-5.607,3.797
			c-3.945,1.197-8.094-0.584-11.539-3.01C144.766,181.193,149.408,189.111,157.004,188.908z"/>
		<path fill="#FFFFFF" d="M153.412,203.164c3.477-2.979,4.559-4.295,6.398-4.322c0,0-2.893-0.906-5.844,0.523
			c-2.951,1.435-5.113,5.611-10.52,6.604C143.447,205.969,149.936,206.145,153.412,203.164z"/>
		<path fill="#FFFFFF" d="M152.115,221.789c-4.809-2.266-7.42-0.176-6.539,4.609c0.883,4.785,4.646,8.781,4.646,8.781
			s-4.135-9.479-0.373-10.918c0.836-0.23,0.559,12.869,9.941,10.688c0,0,0.93,2.02,2.742,2.449c0,0-1.639-3.207,0.975-7.492
			C163.508,229.906,156.922,224.055,152.115,221.789z"/>
		<path fill="#FFFFFF" d="M143.699,223.842c3.816-11.221,16.75-5.844,16.75-5.844c-2.492-7.869-9.113-8.961-9.113-8.961
			c-17.064,16.598-22.051,4.129-22.051,4.129c-4.129,8.025,3.895,8.648,7.09,16.051c3.195,7.4,11.453,10.207,11.453,10.207
			S139.881,235.059,143.699,223.842z"/>
		<path fill="#FFFFFF" d="M166.117,216.012c-1.182,2.225-2.143,2.887-5.377,3.699c3.234,0.816,4.195,1.477,5.377,3.701
			c1.184-2.225,2.143-2.885,5.377-3.701C168.26,218.898,167.301,218.236,166.117,216.012z"/>
		<path fill="#FFFFFF" d="M152.828,205.531c7.713-0.234,9.504,6.078,9.504,6.078C159.371,198.832,152.828,205.531,152.828,205.531z"
			/>
		<path fill="#FFFFFF" d="M193.006,180.24c-4.891,4.35-11.479,12.078-17.969,11.363c0,0,6.932,2.254,9.115,6.496
			c-0.469-1.051-1.514-3.789-0.668-5.641c0,0,3.627,2.826,10.621,0.605c6.992-2.223,6.199-11.332,6.199-11.332
			s1.406-0.754,1.988,4.092c0,0,1.703-5.203,0.502-8.564S197.895,175.887,193.006,180.24z M186.235,187.846
			c5.914,2.473,6.535-3.555,6.535-3.555l1.393-1.842c0.541,10.297-8.4,7.35-8.4,7.35L186.235,187.846z M196.555,189.244
			c-3.078,5.182-11.715,3.184-12.801,1.883l0.727-0.668c0,0,3.996,3.02,8.666-0.141c4.674-3.162,2.385-8.604,2.385-8.604l1.336-0.57
			C196.868,181.145,199.344,184.027,196.555,189.244z M184.153,198.1c0.119,0.271,0.203,0.434,0.203,0.434
			C184.293,198.387,184.223,198.242,184.153,198.1z M175.301,188.908c7.596,0.203,12.242-7.715,12.242-7.715
			c-3.445,2.426-7.598,4.207-11.541,3.01s-5.609-3.797-5.609-3.797v0.146C170.393,180.553,167.706,188.703,175.301,188.908z
			 M172.499,198.842c1.838,0.027,2.918,1.344,6.396,4.322c3.477,2.98,9.963,2.805,9.963,2.805
			c-5.406-0.992-7.568-5.169-10.521-6.604C175.389,197.936,172.499,198.842,172.499,198.842z M186.731,226.398
			c0.883-4.785-1.732-6.875-6.539-4.609s-11.395,8.117-11.395,8.117c2.615,4.285,0.977,7.492,0.977,7.492
			c1.813-0.43,2.742-2.449,2.742-2.449c9.383,2.182,9.105-10.918,9.939-10.688c3.764,1.439-0.371,10.918-0.371,10.918
			S185.848,231.184,186.731,226.398z M171.858,217.998c0,0,12.934-5.377,16.752,5.844c3.816,11.217-4.129,15.582-4.129,15.582
			s8.258-2.807,11.453-10.207c3.193-7.402,11.219-8.025,7.086-16.051c0,0-4.984,12.469-22.047-4.129
			C180.973,209.037,174.35,210.129,171.858,217.998z M166.145,201.029c1.668-4.555,3.02-5.906,7.577-7.574
			c-4.557-1.668-5.908-3.02-7.577-7.574c-1.666,4.555-3.02,5.906-7.574,7.574C163.125,195.123,164.479,196.475,166.145,201.029z
			 M179.479,205.531c0,0-6.545-6.699-9.504,6.078C169.975,211.609,171.766,205.297,179.479,205.531z M243.407,201.734
			c2.629,0,4.48,2.16,4.48,2.16c-1.336-6.408-4.303-12.531-7.258-17.438c3.813-1.997,5.676-8.832,4.207-16.342
			c-1.523-7.773-6.082-13.529-10.512-13.57c0.051-4.239-0.072-7.148-0.072-7.148c1.869-0.313,3.545,0.975,3.545,0.975
			c-4.207-21.389-28.283-34.711-28.283-34.711c1.17-0.818,2.338-0.643,2.338-0.643c-13.732-12.505-28.75-11.131-28.75-11.131
			c0.205-1.988,3.74-3.887,3.74-3.887c-12.939,1.236-18.137,3.874-19.904,5.09c-0.479-0.416-0.752-0.658-0.752-0.658
			s-0.283,0.252-0.781,0.682c-1.732-1.202-6.914-3.869-19.939-5.113c0,0,3.535,1.898,3.74,3.887c0,0-15.018-1.374-28.75,11.131
			c0,0,1.168-0.176,2.338,0.643c0,0-24.076,13.322-28.283,34.711c0,0,1.676-1.287,3.545-0.975c0,0-0.123,2.909-0.074,7.148
			c-4.43,0.041-8.986,5.797-10.51,13.57c-1.471,7.51,0.395,14.344,4.205,16.342c-2.953,4.906-5.92,11.029-7.256,17.438
			c0,0,1.852-2.16,4.48-2.16c0,0-9.818,12.914-6.193,31.494c0,0,1.17-3.33,3.096-3.738c0,0,0.936,17.939,11.279,25.068
			c0,0-0.469-1.969-0.119-3.488c0,0,20.104,14.922,20.805,20.297c0,0,0.934-2.416,0.311-5.063c0,0,13.4,16.906,12.389,22.672
			c0,0,2.055-1.316,2.756-4.033c0,0,3.682,5.404,9.934,8.619c0,0,0.469-1.898-0.086-3.508c0,0,6.338,5.992,11.715,6.984
			c0,0-0.088-1.957-1.08-2.98c0,0,11.785,3.684,12.449,5.941c0.661-2.258,12.448-5.941,12.448-5.941
			c-0.992,1.023-1.08,2.98-1.08,2.98c5.375-0.992,11.717-6.984,11.717-6.984c-0.555,1.609-0.088,3.508-0.088,3.508
			c6.252-3.215,9.936-8.619,9.936-8.619c0.699,2.717,2.754,4.033,2.754,4.033c-1.012-5.766,12.387-22.672,12.387-22.672
			c-0.623,2.646,0.313,5.063,0.313,5.063c0.701-5.375,20.803-20.297,20.803-20.297c0.35,1.52-0.117,3.488-0.117,3.488
			c10.344-7.129,11.279-25.068,11.279-25.068c1.926,0.408,3.098,3.738,3.098,3.738C253.225,214.648,243.407,201.734,243.407,201.734
			z M233.532,170.705c-0.016,0.004-0.031,0.008-0.043,0.012c0.441-3.732,0.664-7.539,0.768-10.885
			c3.32,1.707,6.205,5.979,7.26,11.363c1.029,5.254,0.045,10.188-2.266,13.053c-3.426-5.301-6.48-8.713-6.48-8.713
			s1.17-3.721,4.441-3.076C237.211,172.459,235.692,170.296,233.532,170.705z M164.457,110.259c1.107,0.439,1.697,0.767,1.697,0.767
			s0.606-0.336,1.745-0.787c3.443,4.188,11.625,10.145,22.475,15.123c13.771,6.318,19.549,13.525,19.549,13.525
			c-17.082-7.947-32.777-5.826-32.777-5.826c20.336,1.631,30.654,15.748,30.654,15.748c-9.824-8.342-27.76-5.084-27.76-5.084
			c10.793,1.053,12.852,7.158,12.852,7.158c-17.08,0.691-26.706,15.682-26.706,15.682s-9.625-14.99-26.705-15.682
			c0,0,2.057-6.105,12.852-7.158c0,0-17.938-3.258-27.76,5.084c0,0,10.318-14.117,30.656-15.748c0,0-15.699-2.121-32.777,5.826
			c0,0,5.773-7.207,19.547-13.525C152.83,120.391,161.004,114.443,164.457,110.259z M204.256,188.352c0,0-1.52,4.617-5.787,6.078
			c0,0,7.508,0.344,11.057-4.695c0.23,4.443-0.533,7.609-0.951,8.967c-9.928,9.191-21.461,3.248-21.461,3.248
			c5.709,5.938,12.816,7.266,19.246,3.23c3.043-1.906,4.635-4.584,5.469-6.873c0.047,2.393-0.863,3.838-0.863,3.838
			c6.906,5.633,6.113,15.697-0.873,25.164c-6.986,9.465-15.082,7.813-15.082,7.813c2.143,6.986,0.662,11.242,0.662,11.242
			c-1.457,3.396-3.238,6.094-5.221,8.238c-0.232,0.215-0.506,0.457-0.818,0.725c0.023-0.014,0.043-0.029,0.066-0.047
			c-0.035,0.029-0.074,0.057-0.115,0.088c0.016-0.012,0.033-0.025,0.049-0.041c-3.203,2.168-10.094,4.326-23.555,4.326
			c-13.057,0-19.932-2.029-23.256-4.129c-2.344-2.277-4.443-5.258-6.117-9.16c0,0-1.482-4.256,0.66-11.242
			c0,0-8.096,1.652-15.08-7.813c-6.986-9.467-7.781-19.531-0.873-25.164c0,0-0.867-1.374-0.869-3.662
			c0.852,2.248,2.439,4.838,5.404,6.697c6.43,4.035,13.537,2.707,19.246-3.23c0,0-11.459,5.902-21.365-3.164
			c-0.41-1.299-1.203-4.469-0.982-8.959c3.574,4.941,10.99,4.604,10.99,4.604c-4.266-1.461-5.785-6.078-5.785-6.078
			c-0.35,1.111,0.293,2.104,0.293,2.104c-3.219-1.451-4.533-3.365-4.967-5.107c0.496-2.668,1.367-5.631,2.795-8.818
			c6.033-13.447,17.254-13.947,40.016,2.873c20.383-16.645,33.983-16.32,40.016-2.873c1.4,3.123,2.266,6.031,2.766,8.656
			c-0.395,1.785-1.688,3.773-5.008,5.27C203.961,190.455,204.606,189.463,204.256,188.352z M90.791,171.195
			c1.053-5.385,3.938-9.656,7.26-11.363c0.104,3.346,0.326,7.152,0.768,10.885c-0.014-0.004-0.027-0.008-0.043-0.012
			c-2.162-0.409-3.682,1.754-3.682,1.754c3.273-0.645,4.443,3.076,4.443,3.076s-3.057,3.412-6.48,8.713
			C90.746,181.383,89.762,176.447,90.791,171.195z M125.324,251.813c-6-6.156-4.596-19.012-4.596-19.012
			c-3.896,5.141-2.807,15.037-2.807,15.037c-11.375-12.309-10.283-25.945-10.283-25.945c-5.221,9.273-2.416,21.971-2.416,21.971
			c-9.506-13.633-5.277-29.393-5.277-29.393c-5.902,6.486-6.43,19.578-6.43,19.578c-3.154-6.311-0.584-12.738-0.584-12.738
			c-2.979,1.576-3.564,6.893-3.564,6.893c-7.479-17.527,10.051-36.695,10.051-36.695l-8.297,4.986
			c4.363-10.285,11.688-17.492,11.688-17.492l3.389,5.143c-6.896-31.906-1.229-40.027-1.229-40.027
			c-1.986-0.176-3.914,1.344-3.914,1.344c7.83-22.088,36.637-31.027,36.637-31.027c-3.037-1.754-8.16-1.15-8.16-1.15
			c13.779-6.764,24.891-5.811,31.125-4.238c-3.025,2.404-6.824,5.232-10.168,7.137c-6.879,3.914-30.736,14.38-35.871,29.781
			c0,0,3.783-4.212,9.512-4.245c0,0-5.365,5.298-4.904,14.972c0,0,6.779-6.943,16.207-7.783c0,0-3.355,3.31-3.307,6.172
			c0,0,14.4-3.488,27.857,10.172c-6.928-3.447-18.563-7.496-29.205-2.994c0,0,3.414-0.375,4.445,0.527
			c0,0-14.023,5.158-16.246,25.791c0,0-1.588-1.605-1.482-4.709c0,0-3.598,9.916-1.27,15.123c0,0-6.033,10.316-4.34,20.232
			c0,0,0.74-2.303,2.012-2.754c0,0-0.371,10.566,8.043,17.127c0,0-1.059-2.053-0.635-3.355c0,0,1.799,4.191,6.719,7.844
			C124.773,243.594,125.324,251.813,125.324,251.813z M137.244,275.264c3.039-3.975,0.078-8.727,0.078-8.727
			c-2.336,5.221-7.4,3.818-7.4,3.818c3.738-2.027,3.389-8.025,3.389-8.025c-5.096-0.301-4.867-18.537-4.693-23.82
			c1.266,0.881,2.717,1.719,4.383,2.445c0,0-2.248,12.229,12.645,27.553C144.695,273.98,137.244,275.264,137.244,275.264z
			 M166.188,273.404c-8.453,0-19.906-2.203-26.783-19.529c0,0,6.297,11.668,26.783,11.668c20.489,0,26.786-11.668,26.786-11.668
			C186.092,271.201,174.641,273.404,166.188,273.404z M202.385,270.355c0,0-5.064,1.402-7.4-3.818c0,0-2.963,4.752,0.078,8.727
			c0,0-7.398-1.271-8.389-6.693c14.955-15.355,12.701-27.615,12.701-27.615c1.637-0.713,3.068-1.535,4.316-2.398
			c0.172,5.346,0.385,23.475-4.695,23.773C198.997,262.33,198.647,268.328,202.385,270.355z M242.938,228.203
			c0,0-0.582-5.316-3.563-6.893c0,0,2.57,6.428-0.586,12.738c0,0-0.525-13.092-6.426-19.578c0,0,4.227,15.76-5.279,29.393
			c0,0,2.805-12.697-2.416-21.971c0,0,1.09,13.637-10.285,25.945c0,0,1.09-9.896-2.805-15.037c0,0,1.402,12.855-4.596,19.012
			c0,0,0.549-8.184-2.678-13.695c4.957-3.66,6.766-7.879,6.766-7.879c0.422,1.303-0.633,3.355-0.633,3.355
			c8.412-6.561,8.043-17.127,8.043-17.127c1.27,0.451,2.008,2.754,2.008,2.754c1.695-9.916-4.338-20.232-4.338-20.232
			c2.326-5.207-1.27-15.123-1.27-15.123c0.107,3.104-1.482,4.709-1.482,4.709c-2.223-20.633-16.246-25.791-16.246-25.791
			c1.031-0.902,4.445-0.527,4.445-0.527c-10.34-4.373-21.617-0.676-28.602,2.697c13.301-13.312,27.25-9.875,27.25-9.875
			c0.049-2.862-3.309-6.172-3.309-6.172c9.43,0.84,16.209,7.783,16.209,7.783c0.461-9.674-4.904-14.972-4.904-14.972
			c5.727,0.033,9.512,4.245,9.512,4.245c-5.133-15.401-28.994-25.867-35.873-29.781c-3.346-1.908-7.154-4.742-10.182-7.148
			c6.244-1.567,17.332-2.496,31.076,4.25c0,0-5.125-0.604-8.162,1.15c0,0,28.809,8.939,36.639,31.027c0,0-1.928-1.52-3.914-1.344
			c0,0,5.666,8.121-1.229,40.027l3.391-5.143c0,0,7.324,7.207,11.686,17.492l-8.299-4.986
			C232.887,191.508,250.418,210.676,242.938,228.203z M148.156,198.1c-0.074,0.143-0.141,0.287-0.203,0.434
			C147.953,198.533,148.035,198.371,148.156,198.1z M148.156,198.1c2.182-4.242,9.113-6.496,9.113-6.496
			c-6.49,0.715-13.08-7.014-17.969-11.363c-4.889-4.354-8.59-6.342-9.791-2.98c-1.197,3.361,0.506,8.564,0.506,8.564
			c0.58-4.846,1.988-4.092,1.988-4.092s-0.797,9.109,6.197,11.332c6.994,2.221,10.621-0.605,10.621-0.605
			C149.666,194.311,148.623,197.049,148.156,198.1z M138.145,182.449l1.393,1.842c0,0,0.621,6.027,6.535,3.555l0.473,1.953
			C146.545,189.799,137.604,192.746,138.145,182.449z M135.754,189.244c-2.791-5.217-0.314-8.1-0.314-8.1l1.338,0.57
			c0,0-2.291,5.441,2.381,8.604c4.674,3.16,8.666,0.141,8.666,0.141l0.729,0.668C147.469,192.428,138.83,194.426,135.754,189.244z
			 M157.004,188.908c7.6-0.205,4.908-8.355,4.908-8.355v-0.146c0,0-1.664,2.6-5.607,3.797c-3.945,1.197-8.094-0.584-11.539-3.01
			C144.766,181.193,149.408,189.111,157.004,188.908z M153.412,203.164c3.477-2.979,4.559-4.295,6.398-4.322
			c0,0-2.893-0.906-5.844,0.523c-2.951,1.435-5.113,5.611-10.52,6.604C143.447,205.969,149.936,206.145,153.412,203.164z
			 M152.115,221.789c-4.809-2.266-7.42-0.176-6.539,4.609c0.883,4.785,4.646,8.781,4.646,8.781s-4.135-9.479-0.373-10.918
			c0.836-0.23,0.559,12.869,9.941,10.688c0,0,0.93,2.02,2.742,2.449c0,0-1.639-3.207,0.975-7.492
			C163.508,229.906,156.922,224.055,152.115,221.789z M143.699,223.842c3.816-11.221,16.75-5.844,16.75-5.844
			c-2.492-7.869-9.113-8.961-9.113-8.961c-17.064,16.598-22.051,4.129-22.051,4.129c-4.129,8.025,3.895,8.648,7.09,16.051
			c3.195,7.4,11.453,10.207,11.453,10.207S139.881,235.059,143.699,223.842z M166.117,216.012c-1.182,2.225-2.143,2.887-5.377,3.699
			c3.234,0.816,4.195,1.477,5.377,3.701c1.184-2.225,2.143-2.885,5.377-3.701C168.26,218.898,167.301,218.236,166.117,216.012z
			 M152.828,205.531c7.713-0.234,9.504,6.078,9.504,6.078C159.371,198.832,152.828,205.531,152.828,205.531z"/>
	</g>
</g>
</svg>
