<?xml version="1.0" encoding="utf-8"?>
<!-- Generator: Adobe Illustrator 16.0.0, SVG Export Plug-In . SVG Version: 6.00 Build 0)  -->
<!DOCTYPE svg PUBLIC "-//W3C//DTD SVG 1.1//EN" "http://www.w3.org/Graphics/SVG/1.1/DTD/svg11.dtd">
<svg version="1.1" id="Layer_1" xmlns="http://www.w3.org/2000/svg" xmlns:xlink="http://www.w3.org/1999/xlink" x="0px" y="0px"
	 width="200.304px" height="200px" viewBox="85.7 369.16 200.304 200" enable-background="new 85.7 369.16 200.304 200"
	 xml:space="preserve">
<rect x="85.7" y="369.16" fill="#6EC498" width="200.304" height="200"/>
<g>
	<g>
		<g>
			<path fill="none" stroke="#FFFFFF" stroke-width="11.7772" d="M127.177,437.131c32.435-32.43,84.925-32.43,117.354,0"/>
			<path fill="none" stroke="#FFFFFF" stroke-width="11.7772" d="M142.525,452.482c23.95-23.945,62.709-23.945,86.663,0"/>
			<path fill="none" stroke="#FFFFFF" stroke-width="11.7772" d="M160.494,469.016c14.019-14.021,36.711-14.021,50.729,0"/>
		</g>
		<path fill="#FFFFFF" d="M196.579,485.545c0,5.926-4.804,10.726-10.724,10.726c-5.921,0-10.721-4.8-10.721-10.726
			c0-5.916,4.799-10.721,10.721-10.721C191.777,474.826,196.579,479.629,196.579,485.545z"/>
	</g>
	<g>
		<rect x="135.239" y="512.91" fill="none" width="101.241" height="26.602"/>
		<path fill="#FFFFFF" d="M166.616,534.709c-1.255-2.229-2.612-4.43-4.073-6.602c-1.461-2.173-3.016-4.224-4.663-6.152v12.756
			h-4.325V515.24h3.566c0.618,0.619,1.302,1.377,2.051,2.274c0.749,0.898,1.513,1.859,2.29,2.881s1.55,2.078,2.317,3.175
			c0.768,1.098,1.488,2.147,2.162,3.159V515.24h4.354v19.471L166.616,534.709L166.616,534.709z"/>
		<path fill="#FFFFFF" d="M174.51,519.285c0.544-0.226,1.11-0.479,1.7-0.771s1.166-0.608,1.729-0.955
			c0.563-0.346,1.101-0.711,1.615-1.096c0.516-0.385,0.979-0.791,1.392-1.225h2.922v19.469h-4.187V520.69
			c-0.563,0.375-1.188,0.715-1.883,1.024c-0.692,0.31-1.367,0.574-2.022,0.799L174.51,519.285z"/>
		<path fill="#FFFFFF" d="M198.613,528.979c0-0.544-0.122-1.025-0.364-1.447c-0.244-0.422-0.665-0.771-1.266-1.053
			s-1.403-0.496-2.416-0.646c-1.011-0.148-2.284-0.225-3.819-0.225c0.205-1.742,0.375-3.513,0.506-5.312s0.233-3.481,0.311-5.059
			h10.534v3.514h-7.023c-0.036,0.674-0.08,1.324-0.126,1.951c-0.047,0.627-0.099,1.178-0.153,1.645
			c2.732,0.188,4.752,0.828,6.055,1.925c1.301,1.096,1.951,2.618,1.951,4.565c0,0.896-0.158,1.73-0.479,2.5
			c-0.317,0.769-0.796,1.433-1.433,1.992c-0.638,0.563-1.438,1.004-2.402,1.32c-0.965,0.317-2.093,0.479-3.385,0.479
			c-0.506,0-1.035-0.031-1.587-0.1c-0.554-0.064-1.087-0.148-1.603-0.252c-0.517-0.104-0.979-0.211-1.392-0.324
			c-0.412-0.109-0.729-0.225-0.955-0.336l0.759-3.455c0.469,0.205,1.086,0.406,1.854,0.604c0.768,0.197,1.686,0.295,2.753,0.295
			c1.293,0,2.229-0.258,2.81-0.771C198.322,530.275,198.613,529.67,198.613,528.979z"/>
		<path fill="#FFFFFF" d="M219.456,524.932c0,3.279-0.623,5.793-1.868,7.543c-1.245,1.753-2.964,2.628-5.153,2.628
			c-2.191,0-3.91-0.875-5.155-2.628c-1.246-1.75-1.868-4.264-1.868-7.543c0-1.629,0.164-3.069,0.491-4.325
			c0.328-1.255,0.801-2.313,1.419-3.175c0.618-0.86,1.357-1.52,2.221-1.967c0.86-0.449,1.824-0.676,2.895-0.676
			c2.189,0,3.909,0.875,5.153,2.629C218.833,519.17,219.456,521.674,219.456,524.932z M215.187,524.932
			c0-0.975-0.047-1.856-0.142-2.653c-0.095-0.795-0.244-1.482-0.448-2.063c-0.207-0.58-0.487-1.028-0.844-1.35
			c-0.355-0.316-0.797-0.479-1.319-0.479c-0.525,0-0.96,0.16-1.308,0.479c-0.348,0.317-0.628,0.77-0.844,1.35
			s-0.369,1.271-0.464,2.063c-0.094,0.795-0.14,1.684-0.14,2.653c0,0.976,0.046,1.865,0.14,2.67
			c0.095,0.806,0.248,1.498,0.464,2.078c0.216,0.582,0.496,1.031,0.844,1.351c0.348,0.317,0.78,0.479,1.308,0.479
			c0.522,0,0.964-0.158,1.319-0.479c0.354-0.316,0.637-0.769,0.844-1.351c0.204-0.58,0.354-1.272,0.448-2.078
			C215.14,526.797,215.187,525.906,215.187,524.932z"/>
	</g>
</g>
</svg>
