<?xml version="1.0" encoding="utf-8"?>
<!-- Generator: Adobe Illustrator 16.0.0, SVG Export Plug-In . SVG Version: 6.00 Build 0)  -->
<!DOCTYPE svg PUBLIC "-//W3C//DTD SVG 1.1//EN" "http://www.w3.org/Graphics/SVG/1.1/DTD/svg11.dtd">
<svg version="1.1" id="Layer_1" xmlns="http://www.w3.org/2000/svg" xmlns:xlink="http://www.w3.org/1999/xlink" x="0px" y="0px"
	 width="200.309px" height="200px" viewBox="315.002 371.16 200.309 200" enable-background="new 315.002 371.16 200.309 200"
	 xml:space="preserve">
<rect x="315.002" y="371.16" width="200.309" height="200"/>
<g>
	<g>
		<rect x="357.813" y="449.928" fill="none" width="108.895" height="29.849"/>
		<path fill="#FFFFFF" d="M381.327,452.969h5.718v25.398h-5.718v-10.775h-9.604v10.775h-5.719v-25.398h5.719v9.715h9.604V452.969z"
			/>
		<path fill="#FFFFFF" d="M415.156,465.648c0,2.198-0.344,4.118-1.024,5.754c-0.687,1.639-1.656,2.993-2.914,4.067
			c-1.261,1.074-2.793,1.883-4.603,2.42c-1.809,0.535-3.836,0.808-6.084,0.808c-1.022,0-2.223-0.043-3.59-0.129
			c-1.369-0.086-2.713-0.263-4.032-0.531v-24.738c1.319-0.242,2.694-0.408,4.123-0.494c1.432-0.086,2.657-0.129,3.686-0.129
			c2.176,0,4.146,0.244,5.918,0.732c1.771,0.488,3.293,1.26,4.563,2.309c1.271,1.054,2.248,2.396,2.935,4.031
			C414.813,461.387,415.156,463.354,415.156,465.648z M398.626,473.713c0.27,0.023,0.579,0.043,0.936,0.058
			c0.354,0.012,0.774,0.018,1.265,0.018c2.857,0,4.979-0.721,6.357-2.162c1.381-1.438,2.07-3.432,2.07-5.975
			c0-2.662-0.66-4.679-1.979-6.047c-1.317-1.367-3.408-2.056-6.27-2.056c-0.392,0-0.793,0.01-1.208,0.021
			c-0.416,0.012-0.809,0.043-1.174,0.092L398.626,473.713L398.626,473.713z"/>
		<path fill="#FFFFFF" d="M426.661,452.969c0.439,0.81,0.947,1.806,1.523,2.986c0.576,1.188,1.176,2.469,1.801,3.85
			s1.244,2.791,1.855,4.232c0.61,1.44,1.188,2.797,1.729,4.067c0.539-1.271,1.113-2.627,1.728-4.067
			c0.613-1.441,1.229-2.854,1.854-4.232c0.625-1.381,1.228-2.662,1.803-3.85c0.574-1.185,1.084-2.18,1.523-2.986h5.203
			c0.244,1.688,0.471,3.572,0.68,5.662c0.207,2.09,0.392,4.267,0.551,6.523c0.156,2.26,0.306,4.526,0.438,6.799
			c0.135,2.271,0.25,4.41,0.35,6.414h-5.569c-0.072-2.469-0.173-5.156-0.293-8.063c-0.123-2.907-0.308-5.842-0.552-8.799
			c-0.438,1.025-0.932,2.162-1.471,3.408s-1.072,2.492-1.602,3.738c-0.525,1.246-1.033,2.438-1.523,3.573s-0.906,2.105-1.25,2.912
			h-3.996c-0.344-0.807-0.76-1.776-1.25-2.912c-0.488-1.139-0.998-2.327-1.524-3.573c-0.525-1.246-1.062-2.492-1.601-3.738
			s-1.027-2.383-1.471-3.408c-0.244,2.957-0.428,5.891-0.551,8.799c-0.121,2.904-0.22,5.595-0.293,8.063h-5.568
			c0.096-2.004,0.213-4.144,0.348-6.414c0.136-2.271,0.281-4.539,0.439-6.799c0.158-2.261,0.342-4.437,0.551-6.523
			c0.207-2.09,0.434-3.977,0.678-5.662H426.661z"/>
		<path fill="#FFFFFF" d="M452.793,452.969h5.719v25.398h-5.719V452.969z"/>
	</g>
	
		<rect x="348.077" y="426.248" fill="none" stroke="#FFFFFF" stroke-width="6.9154" stroke-miterlimit="10" width="128.359" height="79.346"/>
	
		<line fill="none" stroke="#FFFFFF" stroke-width="6.9154" stroke-miterlimit="10" x1="412.258" y1="505.594" x2="412.258" y2="512.939"/>
	
		<line fill="none" stroke="#FFFFFF" stroke-width="6.9154" stroke-miterlimit="10" x1="476.44" y1="516.074" x2="348.077" y2="516.074"/>
</g>
</svg>
