<?xml version="1.0" encoding="utf-8"?>
<!-- Generator: Adobe Illustrator 16.0.0, SVG Export Plug-In . SVG Version: 6.00 Build 0)  -->
<!DOCTYPE svg PUBLIC "-//W3C//DTD SVG 1.1//EN" "http://www.w3.org/Graphics/SVG/1.1/DTD/svg11.dtd">
<svg version="1.1" id="Layer_1" xmlns="http://www.w3.org/2000/svg" xmlns:xlink="http://www.w3.org/1999/xlink" x="0px" y="0px"
	 width="200.304px" height="200px" viewBox="315.005 64.191 200.304 200" enable-background="new 315.005 64.191 200.304 200"
	 xml:space="preserve">
<rect x="315.005" y="64.191" fill="#EE3968" width="200.304" height="200"/>
<g>
	<g>
		<g>
			
				<line fill="none" stroke="#FFFFFF" stroke-width="11.7772" stroke-miterlimit="10" x1="438.568" y1="193.061" x2="438.568" y2="219.398"/>
			
				<line fill="none" stroke="#FFFFFF" stroke-width="11.7772" stroke-miterlimit="10" x1="415.156" y1="193.061" x2="415.156" y2="219.398"/>
			
				<line fill="none" stroke="#FFFFFF" stroke-width="11.7772" stroke-miterlimit="10" x1="391.751" y1="193.061" x2="391.751" y2="219.398"/>
		</g>
		<g>
			
				<line fill="none" stroke="#FFFFFF" stroke-width="11.7772" stroke-miterlimit="10" x1="438.568" y1="108.987" x2="438.568" y2="135.325"/>
			
				<line fill="none" stroke="#FFFFFF" stroke-width="11.7772" stroke-miterlimit="10" x1="415.156" y1="108.987" x2="415.156" y2="135.325"/>
			
				<line fill="none" stroke="#FFFFFF" stroke-width="11.7772" stroke-miterlimit="10" x1="391.751" y1="108.987" x2="391.751" y2="135.325"/>
		</g>
		<path fill="none" stroke="#FFFFFF" stroke-width="11.7772" stroke-miterlimit="10" d="M481.924,180.23
			c0,9.219-7.474,16.69-16.689,16.69H365.079c-9.219,0-16.688-7.473-16.688-16.69v-33.387c0-9.218,7.472-16.69,16.688-16.69h100.152
			c9.219,0,16.689,7.474,16.689,16.69L481.924,180.23L481.924,180.23z"/>
	</g>
	<g>
		<rect x="364.536" y="150.895" fill="none" width="101.24" height="26.602"/>
		<path fill="#FFFFFF" d="M375.93,166.963c0-0.543-0.123-1.023-0.364-1.445c-0.244-0.422-0.666-0.772-1.267-1.055
			c-0.602-0.279-1.403-0.495-2.416-0.646c-1.012-0.149-2.283-0.225-3.819-0.225c0.207-1.742,0.375-3.513,0.506-5.311
			c0.131-1.799,0.233-3.482,0.313-5.057h10.531v3.512h-7.021c-0.037,0.674-0.08,1.324-0.125,1.951
			c-0.047,0.629-0.101,1.176-0.153,1.645c2.731,0.188,4.752,0.829,6.054,1.924c1.302,1.096,1.952,2.617,1.952,4.564
			c0,0.899-0.158,1.732-0.479,2.5c-0.317,0.769-0.795,1.434-1.434,1.996c-0.637,0.562-1.438,1.002-2.4,1.319
			c-0.964,0.317-2.094,0.478-3.385,0.478c-0.508,0-1.035-0.032-1.59-0.098c-0.553-0.065-1.086-0.149-1.602-0.253
			c-0.517-0.104-0.979-0.211-1.392-0.323c-0.412-0.111-0.729-0.226-0.955-0.336l0.76-3.457c0.468,0.207,1.087,0.408,1.854,0.604
			c0.769,0.197,1.687,0.295,2.753,0.295c1.293,0,2.229-0.257,2.811-0.771C375.639,168.261,375.93,167.656,375.93,166.963z"/>
		<path fill="#FFFFFF" d="M383.738,157.271c0.543-0.227,1.108-0.482,1.698-0.772c0.591-0.29,1.166-0.606,1.729-0.955
			c0.563-0.347,1.102-0.712,1.615-1.096c0.515-0.384,0.979-0.791,1.393-1.222h2.922v19.467h-4.188v-14.018
			c-0.563,0.375-1.188,0.717-1.883,1.024c-0.694,0.31-1.367,0.575-2.023,0.801L383.738,157.271z"/>
		<path fill="#FFFFFF" d="M411.662,158.339c0,0.713-0.143,1.396-0.422,2.052c-0.28,0.655-0.646,1.289-1.098,1.896
			c-0.447,0.609-0.953,1.193-1.519,1.756c-0.561,0.563-1.112,1.098-1.655,1.602c-0.281,0.264-0.586,0.559-0.914,0.886
			s-0.642,0.659-0.938,0.997c-0.301,0.337-0.567,0.65-0.801,0.939c-0.234,0.291-0.383,0.53-0.438,0.717h8.37v3.512h-12.979
			c-0.039-0.205-0.058-0.467-0.058-0.786c0-0.318,0-0.543,0-0.675c0-0.898,0.146-1.723,0.437-2.471
			c0.291-0.75,0.67-1.447,1.14-2.095c0.468-0.646,0.996-1.25,1.586-1.812c0.591-0.563,1.177-1.125,1.757-1.687
			c0.448-0.431,0.871-0.838,1.264-1.222c0.396-0.385,0.74-0.758,1.041-1.124c0.301-0.365,0.533-0.729,0.701-1.097
			s0.254-0.734,0.254-1.109c0-0.824-0.232-1.404-0.703-1.742c-0.469-0.337-1.049-0.505-1.74-0.505c-0.506,0-0.979,0.08-1.418,0.239
			c-0.44,0.158-0.846,0.347-1.209,0.562c-0.365,0.218-0.68,0.433-0.938,0.646c-0.265,0.216-0.461,0.39-0.59,0.521l-2.08-2.921
			c0.822-0.768,1.781-1.398,2.879-1.896c1.096-0.496,2.271-0.744,3.526-0.744c1.142,0,2.125,0.132,2.949,0.394
			c0.822,0.265,1.502,0.633,2.033,1.11c0.535,0.479,0.93,1.058,1.184,1.742C411.535,156.705,411.662,157.479,411.662,158.339z"/>
		<path fill="#FFFFFF" d="M427.843,153.227c0.338,0.618,0.729,1.381,1.17,2.291c0.44,0.908,0.898,1.892,1.38,2.949
			c0.479,1.059,0.953,2.141,1.424,3.244c0.469,1.105,0.91,2.146,1.324,3.118c0.412-0.974,0.854-2.013,1.322-3.118
			c0.471-1.104,0.94-2.188,1.424-3.244c0.479-1.059,0.938-2.041,1.379-2.949c0.438-0.908,0.832-1.672,1.17-2.291h3.988
			c0.188,1.293,0.358,2.738,0.52,4.34c0.16,1.602,0.301,3.269,0.422,5s0.234,3.47,0.338,5.211c0.104,1.742,0.191,3.381,0.269,4.916
			H439.7c-0.057-1.892-0.131-3.95-0.225-6.18c-0.094-2.229-0.234-4.477-0.422-6.742c-0.338,0.787-0.713,1.658-1.127,2.613
			c-0.414,0.954-0.822,1.909-1.229,2.864c-0.399,0.955-0.793,1.868-1.168,2.739c-0.377,0.871-0.694,1.615-0.959,2.232h-3.063
			c-0.263-0.617-0.582-1.361-0.957-2.232c-0.377-0.871-0.767-1.784-1.169-2.739c-0.404-0.955-0.814-1.91-1.229-2.864
			c-0.412-0.955-0.789-1.826-1.127-2.613c-0.188,2.267-0.328,4.515-0.42,6.742c-0.096,2.229-0.17,4.289-0.227,6.18h-4.271
			c0.074-1.535,0.164-3.174,0.271-4.916c0.102-1.741,0.215-3.479,0.336-5.211c0.123-1.731,0.264-3.398,0.422-5
			c0.16-1.603,0.332-3.047,0.52-4.34H427.843z"/>
		<path fill="#FFFFFF" d="M454.361,172.947c-1.065,0-2.131-0.033-3.188-0.1c-1.06-0.064-2.158-0.221-3.304-0.463v-18.878
			c0.9-0.169,1.886-0.296,2.951-0.38c1.066-0.084,2.062-0.126,2.979-0.126c1.233,0,2.375,0.09,3.414,0.269
			c1.039,0.178,1.934,0.48,2.682,0.912c0.75,0.432,1.336,0.998,1.756,1.699c0.422,0.702,0.633,1.569,0.633,2.6
			c0,1.556-0.75,2.781-2.248,3.681c1.236,0.469,2.08,1.104,2.529,1.911c0.449,0.806,0.674,1.713,0.674,2.725
			c0,2.042-0.744,3.578-2.231,4.607C459.517,172.434,457.302,172.947,454.361,172.947z M452.144,160.867h2.135
			c1.351,0,2.314-0.174,2.896-0.52c0.58-0.349,0.871-0.904,0.871-1.673c0-0.786-0.302-1.339-0.898-1.657
			c-0.6-0.317-1.48-0.479-2.641-0.479c-0.375,0-0.777,0.005-1.209,0.016c-0.433,0.008-0.814,0.031-1.15,0.068L452.144,160.867
			L452.144,160.867z M452.144,164.21v5.029c0.318,0.038,0.664,0.065,1.039,0.084c0.373,0.02,0.787,0.028,1.236,0.028
			c1.311,0,2.366-0.188,3.174-0.563c0.805-0.375,1.207-1.065,1.207-2.079c0-0.898-0.336-1.541-1.013-1.924
			c-0.676-0.385-1.641-0.576-2.895-0.576L452.144,164.21L452.144,164.21z"/>
	</g>
</g>
</svg>
